<svg id="Group_18880" data-name="Group 18880" xmlns="http://www.w3.org/2000/svg" xmlns:xlink="http://www.w3.org/1999/xlink" width="720" height="720" viewBox="0 0 720 720">
  <defs>
    <filter id="Path_26111" x="80.04" y="234.51" width="41.901" height="50.895" filterUnits="userSpaceOnUse">
      <feOffset dy="3" input="SourceAlpha"/>
      <feGaussianBlur stdDeviation="3" result="blur"/>
      <feFlood flood-opacity="0.102"/>
      <feComposite operator="in" in2="blur"/>
      <feComposite in="SourceGraphic"/>
    </filter>
    <filter id="Path_26112" x="93.57" y="234.548" width="38.917" height="50.86" filterUnits="userSpaceOnUse">
      <feOffset dy="3" input="SourceAlpha"/>
      <feGaussianBlur stdDeviation="3" result="blur-2"/>
      <feFlood flood-opacity="0.102"/>
      <feComposite operator="in" in2="blur-2"/>
      <feComposite in="SourceGraphic"/>
    </filter>
    <filter id="Path_26113" x="107.093" y="234.587" width="35.941" height="50.821" filterUnits="userSpaceOnUse">
      <feOffset dy="3" input="SourceAlpha"/>
      <feGaussianBlur stdDeviation="3" result="blur-3"/>
      <feFlood flood-opacity="0.102"/>
      <feComposite operator="in" in2="blur-3"/>
      <feComposite in="SourceGraphic"/>
    </filter>
    <filter id="Path_26114" x="120.603" y="234.626" width="32.974" height="50.782" filterUnits="userSpaceOnUse">
      <feOffset dy="3" input="SourceAlpha"/>
      <feGaussianBlur stdDeviation="3" result="blur-4"/>
      <feFlood flood-opacity="0.102"/>
      <feComposite operator="in" in2="blur-4"/>
      <feComposite in="SourceGraphic"/>
    </filter>
    <filter id="Path_26115" x="134.098" y="234.666" width="31.481" height="50.75" filterUnits="userSpaceOnUse">
      <feOffset dy="3" input="SourceAlpha"/>
      <feGaussianBlur stdDeviation="3" result="blur-5"/>
      <feFlood flood-opacity="0.102"/>
      <feComposite operator="in" in2="blur-5"/>
      <feComposite in="SourceGraphic"/>
    </filter>
    <filter id="Path_26116" x="146.123" y="234.705" width="32.938" height="50.71" filterUnits="userSpaceOnUse">
      <feOffset dy="3" input="SourceAlpha"/>
      <feGaussianBlur stdDeviation="3" result="blur-6"/>
      <feFlood flood-opacity="0.102"/>
      <feComposite operator="in" in2="blur-6"/>
      <feComposite in="SourceGraphic"/>
    </filter>
    <filter id="Path_26117" x="156.669" y="234.743" width="35.889" height="50.672" filterUnits="userSpaceOnUse">
      <feOffset dy="3" input="SourceAlpha"/>
      <feGaussianBlur stdDeviation="3" result="blur-7"/>
      <feFlood flood-opacity="0.102"/>
      <feComposite operator="in" in2="blur-7"/>
      <feComposite in="SourceGraphic"/>
    </filter>
    <filter id="Path_26118" x="167.212" y="234.786" width="38.857" height="50.632" filterUnits="userSpaceOnUse">
      <feOffset dy="3" input="SourceAlpha"/>
      <feGaussianBlur stdDeviation="3" result="blur-8"/>
      <feFlood flood-opacity="0.102"/>
      <feComposite operator="in" in2="blur-8"/>
      <feComposite in="SourceGraphic"/>
    </filter>
    <filter id="Path_26119" x="177.76" y="234.824" width="41.831" height="50.598" filterUnits="userSpaceOnUse">
      <feOffset dy="3" input="SourceAlpha"/>
      <feGaussianBlur stdDeviation="3" result="blur-9"/>
      <feFlood flood-opacity="0.102"/>
      <feComposite operator="in" in2="blur-9"/>
      <feComposite in="SourceGraphic"/>
    </filter>
    <linearGradient id="linear-gradient" x1="-2.692" y1="3.976" x2="-2.687" y2="3.976" gradientUnits="objectBoundingBox">
      <stop offset="0" stop-color="#2e719d"/>
      <stop offset="1" stop-color="#2e3c84"/>
    </linearGradient>
    <linearGradient id="linear-gradient-2" x1="-7.032" y1="0.148" x2="-7.025" y2="0.148" xlink:href="#linear-gradient"/>
    <linearGradient id="linear-gradient-3" x1="-4.091" y1="0.148" x2="-4.084" y2="0.148" xlink:href="#linear-gradient"/>
    <linearGradient id="linear-gradient-4" x1="-14.794" y1="19.375" x2="-14.78" y2="19.375" xlink:href="#linear-gradient"/>
    <linearGradient id="linear-gradient-5" x1="-13.55" y1="11.863" x2="-13.536" y2="11.863" gradientUnits="objectBoundingBox">
      <stop offset="0" stop-color="#5eb4fa"/>
      <stop offset="1" stop-color="#4677f1"/>
    </linearGradient>
    <linearGradient id="linear-gradient-6" x1="-13.112" y1="19.375" x2="-13.097" y2="19.375" xlink:href="#linear-gradient"/>
    <linearGradient id="linear-gradient-7" x1="-10.694" y1="3.176" x2="-10.683" y2="3.176" gradientUnits="objectBoundingBox">
      <stop offset="0" stop-color="#fff"/>
      <stop offset="1" stop-color="#e6f3fb"/>
    </linearGradient>
    <linearGradient id="linear-gradient-8" x1="-4.702" y1="4.692" x2="-4.695" y2="4.692" xlink:href="#linear-gradient"/>
    <linearGradient id="linear-gradient-9" x1="-4.158" y1="4.724" x2="-4.152" y2="4.724" xlink:href="#linear-gradient-5"/>
    <linearGradient id="linear-gradient-10" x1="-2.072" y1="3.976" x2="-2.067" y2="3.976" xlink:href="#linear-gradient"/>
    <linearGradient id="linear-gradient-11" x1="-5.401" y1="-2.951" x2="-5.389" y2="-2.951" gradientUnits="objectBoundingBox">
      <stop offset="0" stop-color="#eefbf4"/>
      <stop offset="1" stop-color="#d0d9f2"/>
    </linearGradient>
    <filter id="Path_26145" x="487.36" y="213.563" width="35.958" height="42.652" filterUnits="userSpaceOnUse">
      <feOffset dy="3" input="SourceAlpha"/>
      <feGaussianBlur stdDeviation="3" result="blur-10"/>
      <feFlood flood-color="#6dcfca" flood-opacity="0.471"/>
      <feComposite operator="in" in2="blur-10"/>
      <feComposite in="SourceGraphic"/>
    </filter>
    <filter id="Path_26146" x="501.39" y="213.562" width="33.319" height="42.654" filterUnits="userSpaceOnUse">
      <feOffset dy="3" input="SourceAlpha"/>
      <feGaussianBlur stdDeviation="3" result="blur-11"/>
      <feFlood flood-color="#6dcfca" flood-opacity="0.471"/>
      <feComposite operator="in" in2="blur-11"/>
      <feComposite in="SourceGraphic"/>
    </filter>
    <filter id="Path_26147" x="515.402" y="213.559" width="32" height="42.655" filterUnits="userSpaceOnUse">
      <feOffset dy="3" input="SourceAlpha"/>
      <feGaussianBlur stdDeviation="3" result="blur-12"/>
      <feFlood flood-color="#6dcfca" flood-opacity="0.471"/>
      <feComposite operator="in" in2="blur-12"/>
      <feComposite in="SourceGraphic"/>
    </filter>
    <filter id="Path_26148" x="528.099" y="213.558" width="33.316" height="42.657" filterUnits="userSpaceOnUse">
      <feOffset dy="3" input="SourceAlpha"/>
      <feGaussianBlur stdDeviation="3" result="blur-13"/>
      <feFlood flood-color="#6dcfca" flood-opacity="0.471"/>
      <feComposite operator="in" in2="blur-13"/>
      <feComposite in="SourceGraphic"/>
    </filter>
    <filter id="Path_26149" x="539.489" y="213.556" width="35.956" height="42.659" filterUnits="userSpaceOnUse">
      <feOffset dy="3" input="SourceAlpha"/>
      <feGaussianBlur stdDeviation="3" result="blur-14"/>
      <feFlood flood-color="#6dcfca" flood-opacity="0.471"/>
      <feComposite operator="in" in2="blur-14"/>
      <feComposite in="SourceGraphic"/>
    </filter>
    <linearGradient id="linear-gradient-12" x1="-2.792" y1="3.63" x2="-2.787" y2="3.63" xlink:href="#linear-gradient-5"/>
    <linearGradient id="linear-gradient-13" x1="-3.972" y1="3.632" x2="-3.966" y2="3.632" xlink:href="#linear-gradient-5"/>
    <linearGradient id="linear-gradient-14" x1="-1.717" y1="0.751" x2="-1.714" y2="0.751" gradientUnits="objectBoundingBox">
      <stop offset="0" stop-color="#8ee78a"/>
      <stop offset="1" stop-color="#42d4cf"/>
    </linearGradient>
    <linearGradient id="linear-gradient-15" x1="-2.527" y1="0.751" x2="-2.523" y2="0.751" xlink:href="#linear-gradient-14"/>
  </defs>
  <g id="Group_9240" data-name="Group 9240">
    <path id="Path_21856" data-name="Path 21856" d="M0,0H720V720H0Z" fill="#e3fffc"/>
    <g id="Group_9171" data-name="Group 9171" transform="translate(-378.282 -479.134)">
      <path id="Path_20047" data-name="Path 20047" d="M1231.1,2552.883h-720v227.986h720V2552.883Z" transform="translate(-132.822 -1581.735)" fill="#b9fff6" fill-rule="evenodd" opacity="0.65"/>
      <g id="Group_9256" data-name="Group 9256" transform="translate(379.183 599.916)">
        <path id="Path_26047" data-name="Path 26047" d="M537.81,1436.166c38.233,3.539,22.915,33.761-40.432,28.494-31.224-2.6-54.474-1.869-79.451,2.327-70.981,11.924-85.462-16.573-110.852-12.052-23.161,4.124-35.143-12.969-1.595-18.384,13.687-2.209,32.156-7,104.436-7S518.727,1434.4,537.81,1436.166Z" transform="translate(-59.142 -918.321)" fill="#a9f7ed"/>
        <g id="Group_9245" data-name="Group 9245" transform="translate(287.687 128.6)">
          <path id="Path_21804" data-name="Path 21804" d="M312.093,438.84a2.78,2.78,0,0,0,.655,1.264,3.255,3.255,0,0,0,1.548.661c4.8,1.1,9.639,1.968,14.5,2.59-1.539-12.351-1.039-25.037-5.952-36.841a14.5,14.5,0,0,0-2.99-4.878,11.331,11.331,0,0,0-9.119-2.91c-2.556.307-7.622,2.112-8.327,4.663-.771,2.79,2.1,8.848,2.872,11.763Q308.427,427.039,312.093,438.84Z" transform="translate(-205.778 -56.949)" fill="#fff" stroke="#000" stroke-miterlimit="10" stroke-width="0.5"/>
          <path id="Path_21805" data-name="Path 21805" d="M346.34,447.227q-7.672-.924-15.37-1.639c-4.331-.4-8.681-.624-13-1.2a41.682,41.682,0,0,1-9.151-2.073c-1.85-.7-.663-5.1-.395-6.323a36.474,36.474,0,0,0,.488-9.094c4.927-.082,9.861-.17,14.775-.358a7.3,7.3,0,0,1,2.715.237,8.915,8.915,0,0,1,2.891,2.162c3.6,3.349,25.8,10.8,24.559,17-.339,1.7-2.671,1.89-4.391,1.673Q347.9,447.415,346.34,447.227Z" transform="translate(-204.311 -49.553)" fill="#161111"/>
          <path id="Path_21806" data-name="Path 21806" d="M265.249,440.3a2.212,2.212,0,0,1-.412,1.246,2.606,2.606,0,0,1-1.425.628,135.151,135.151,0,0,1-14.054,2.3c-.86-12.27-3.831-24.914-1.2-36.576a11.11,11.11,0,0,1,2.054-4.8c1.874-2.236,5.278-3.171,8.588-2.723,2.627.356,8.064,2.249,9.267,4.8,1.317,2.793-.386,8.771-.592,11.66Q266.633,428.623,265.249,440.3Z" transform="translate(-220.421 -56.517)" fill="#fff" stroke="#000" stroke-miterlimit="10" stroke-width="0.5"/>
          <g id="Group_9244" data-name="Group 9244" transform="translate(3.194)">
            <g id="Group_9243" data-name="Group 9243" transform="translate(36.941)">
              <path id="Path_21807" data-name="Path 21807" d="M262.919,157.2q.091.638.195,1.273c1.068,6.57-1.468,13.428-.159,20.225.927,4.815,5.03,14.388,10.941,15.016,1.5.159,3.014-1.836,3.843-2.855,2.743-3.366,4.946-7.331,5.418-11.649a32.175,32.175,0,0,0-.135-6.29q-.391-4.517-.783-9.033a34.675,34.675,0,0,0-.542-4.219,14.928,14.928,0,0,0-3.346-6.821c-3.514-3.953-8.643-4.269-13.611-4.363a2.871,2.871,0,0,0-1.63.307c-.91.585-.915,1.889-.815,2.966C262.465,153.589,262.659,155.4,262.919,157.2Z" transform="translate(-256.533 -123.324)" fill="#fff" stroke="#000" stroke-miterlimit="10" stroke-width="0.5"/>
              <path id="Path_21808" data-name="Path 21808" d="M274.436,163.293c-3.134.944-11.323,2.219-11.323,2.219a59.667,59.667,0,0,0,.176-6.18c-.019-.215-.21-1.589-.4-2.8a12.041,12.041,0,0,0-.377-1.949,5.1,5.1,0,0,0,2.045-1.029c.345-.309.586-.719.938-1.04A8,8,0,0,1,273.8,151.1a9.86,9.86,0,0,1,4.095,3.165,13.359,13.359,0,0,1,1.607,2.694,10.856,10.856,0,0,1,1.131,3.415c0,.01.039.3.1.777C278.661,161.928,276.563,162.652,274.436,163.293Z" transform="translate(-256.465 -122.785)"/>
              <g id="Group_9242" data-name="Group 9242">
                <path id="Path_21809" data-name="Path 21809" d="M279.912,144.808c.92-2.854,4.094-1.68,4.788.668a3.7,3.7,0,0,1-.83,3.5,2.517,2.517,0,0,1-2.474.82" transform="translate(-250.869 -122.404)" fill="#fff" stroke="#000" stroke-miterlimit="10" stroke-width="0.5"/>
                <path id="Path_21810" data-name="Path 21810" d="M284.43,133.891c-2.494-1.332-9.246,3.427-12.068,3.781-2.776.616-7.1,1.318-9.061,3.362-4.14,4.326-3.373,11.845-.766,17.117.437.882,1.344,3.13,1.868,3.964,4.182,6.653,11.93,7.243,15.818,6.3,4.645-1.124,7.167-5,7.954-10.426.14-.974.176-4.153.191-5.137C288.462,146.81,287.056,135.292,284.43,133.891Z" transform="translate(-257.028 -127.259)" fill="#fff" stroke="#000" stroke-miterlimit="10" stroke-width="0.5"/>
                <path id="Path_21811" data-name="Path 21811" d="M284.234,131.552a27.257,27.257,0,0,0-15.534-2.7,13.454,13.454,0,0,0-7.848,4.636A15.111,15.111,0,0,0,258,145.7c.531,3,1.668,7.7,4.812,9.05,1.926.824,3.2.087,3.529-1.931.377-2.343-.049-4.844.218-7.242a1.536,1.536,0,0,1,.295-.886,1.585,1.585,0,0,1,.983-.378c5.344-.788,9.954-3.26,14.217-6.495a5.853,5.853,0,0,0,3.543,2.142,4.839,4.839,0,0,0,2.667-.13,2.272,2.272,0,0,0,1.073-2.232,4.839,4.839,0,0,0-1.051-2.372A13.81,13.81,0,0,0,284.234,131.552Z" transform="translate(-257.733 -128.6)"/>
                <path id="Path_21812" data-name="Path 21812" d="M277.786,134.048c2.267-1.723,5.256.495,6.119,2.585,1.006,2.437.772,5.292.615,7.86-.092,1.5-.008,3.286-.2,4.863-.109-.952-.229-1.9-.391-2.847a15.293,15.293,0,0,0-1.83-5.689,3.945,3.945,0,0,0-1.721-2.327c-.635-.351-1.386-.458-2-.835a2.652,2.652,0,0,1-1.144-1.467A1.984,1.984,0,0,1,277.786,134.048Z" transform="translate(-252.587 -127.319)"/>
                <path id="Path_21813" data-name="Path 21813" d="M265.121,153.245a3.106,3.106,0,0,1-4.941.53c-3.139-3.06-1.826-10.914,3.734-9.333,1.515.43,2.471,1.882,3.291,3.225" transform="translate(-257.526 -124.452)" fill="#fff" stroke="#000" stroke-miterlimit="10" stroke-width="0.5"/>
              </g>
            </g>
            <path id="Path_21814" data-name="Path 21814" d="M240.37,341.239c-.531-19.186-.934-37.711,2.1-56.779,1.3-8.175,8.055-36.369,18.3-37.9a3.911,3.911,0,0,1,1.556.066,23.29,23.29,0,0,1,3.17-8.029c4.47-7.185,12.584-12.428,20.886-14.394,9.209-2.18,20.436-.929,24.487,9.686,2.075,5.436,1.592,10.964,4.065,16.222,6.983,14.849,7.88,29.59,9.959,45.942q3.684,28.971,7.655,57.905,7.546,54.978,16.142,109.8a94.876,94.876,0,0,1-11.544,2.075,88.826,88.826,0,0,1-20.3-.214q-9.885-49.851-21.134-99.42c-3.757-16.534-6.566-24.954-10.448-40.655q-.623,6.039-1.3,12.071c-1.6,14.251-2.842,28.542-4.9,42.74a479.583,479.583,0,0,0-4.314,87.442c-6.375.259-18.975-.229-25.08-.664-.912-.066-7.7-.962-7.781-1.816-2.079-23.029-2-41.538-2.48-65.723C239.051,381.414,240.864,359.065,240.37,341.239Z" transform="translate(-225.665 -103.474)" fill="#00ccc1"/>
            <path id="Path_26174" data-name="Path 26174" d="M231.918,183.309a23.807,23.807,0,0,1,2.682-4.043c5.584-6.8,13.916-9.452,22.393-10.293,4.817-.477,9.709-.077,14.364-1.572a13.506,13.506,0,0,0,.862,3.978c1.658,3.878,6.46,4.767,10.621,4.735,4.219-.033,8.671-3.582,9-8.26,4.775.79,9.677.506,14.455,1.283,3.782.615,7.692,2.033,10.412,4.834a59.407,59.407,0,0,1,8.04,10.772c.633,1.059,1.245,2.13,1.849,3.2,9.009,15.977,13.571,32.49,7.974,50.3-1.2,3.814-2.828,7.858-6.265,9.9a9.631,9.631,0,0,1-4.983,1.277c2.369.011,1.367,12.856,2.886,33.345q-40.346-1.427-80.717-1.9l2.612-20.9c.72-5.753,2.28-9.792-1.559-14.27a76.406,76.406,0,0,1-16.481-32.547,58.457,58.457,0,0,1-1.207-19.188A29.544,29.544,0,0,1,231.918,183.309Z" transform="translate(-228.538 -116.305)" fill="#059fc0" opacity="0.63"/>
            <path id="Path_21815" data-name="Path 21815" d="M270.777,152.406c.181,1.418,2.255,2.491,4.775,2.419" transform="translate(-216.538 -121.284)" fill="#fff" stroke="#000" stroke-miterlimit="10" stroke-width="0.5"/>
            <path id="Path_21816" data-name="Path 21816" d="M231.918,183.309a23.807,23.807,0,0,1,2.682-4.043c5.584-6.8,13.916-9.452,22.393-10.293,4.817-.477,9.709-.077,14.364-1.572a13.506,13.506,0,0,0,.862,3.978c1.658,3.878,6.46,4.767,10.621,4.735,4.219-.033,8.671-3.582,9-8.26,4.775.79,9.677.506,14.455,1.283,3.782.615,7.692,2.033,10.412,4.834a59.407,59.407,0,0,1,8.04,10.772c.633,1.059,1.245,2.13,1.849,3.2,9.009,15.977,13.571,32.49,7.974,50.3-1.2,3.814-2.828,7.858-6.265,9.9a9.631,9.631,0,0,1-4.983,1.277c2.369.011,1.367,12.856,2.886,33.345q-40.346-1.427-80.717-1.9l2.612-20.9c.72-5.753,2.28-9.792-1.559-14.27a76.406,76.406,0,0,1-16.481-32.547,58.457,58.457,0,0,1-1.207-19.188A29.544,29.544,0,0,1,231.918,183.309Z" transform="translate(-228.538 -118.305)" fill="#0cbce2"/>
            <path id="Path_21817" data-name="Path 21817" d="M290.243,220.48c-2.289-2.022-4.5-4.039-6.638-6.217a24.39,24.39,0,0,0-6.189-5.087c-6.944-.264-13.987-.263-20.525,2-7.767,2.689-15.2,9.895-15.478,18.557-.243,7.607,8.8,8.905,14.548,8.765,4.861-.118,9.619-1.336,14.327-2.547l25.622-6.59c1.115-.287,2.235-.55,3.356-.814C296.2,225.927,293.265,223.148,290.243,220.48Z" transform="translate(-225.123 -107.252)" fill="#fff" stroke="#222221" stroke-miterlimit="10" stroke-width="0.5"/>
            <path id="Path_21818" data-name="Path 21818" d="M325.458,217.421a18.045,18.045,0,0,0-11.18-6.084c-6.48-.81-13.377-.061-19.938-.45-7.587-.452-15.175-.9-22.77-1.234a36.987,36.987,0,0,1,3.505,3.154c2.2,2.2,4.368,4.354,6.716,6.4,3.747,3.257,7.33,6.727,11.145,9.909,4.154-.933,8.327-1.761,12.476-2.624,3.818-.793,7.889-1.172,11-.275a9.062,9.062,0,0,1,4.98,3.5,6.711,6.711,0,0,1,1.446,2.267c.256,1.262-.621,2.689-.673,3.963a.955.955,0,0,0,.078.5c.167.307,1.837.419,2.188.411,3.5-.08,3.028-5.641,2.914-8.4.187,1.52.495,3.552,0,5.036-.173,2.077-1.667,2.826-1.059,3.364a3.43,3.43,0,0,0,2.716-.859c.969-1.589.807-3.552.841-5.285A19.222,19.222,0,0,0,325.458,217.421Z" transform="translate(-217.12 -107.094)" fill="#fff" stroke="#222221" stroke-miterlimit="10" stroke-width="0.5"/>
            <path id="Path_21819" data-name="Path 21819" d="M316.112,227.05a20.267,20.267,0,0,0-.721-4.511,8.239,8.239,0,0,0-1.2-2.408" transform="translate(-205.811 -104.314)" fill="#fff" stroke="#222221" stroke-miterlimit="10" stroke-width="0.5"/>
            <path id="Path_21820" data-name="Path 21820" d="M312.435,233.937a13.909,13.909,0,0,0,1.2-10.758,21.518,21.518,0,0,0-1.067-2.521" transform="translate(-206.277 -104.174)" fill="#fff" stroke="#222221" stroke-miterlimit="10" stroke-width="0.5"/>
            <path id="Path_21821" data-name="Path 21821" d="M290.474,232.83q.995.668,2.011,1.3a66.84,66.84,0,0,0,7.272,3.575c7.824,3.664,15.839,3.332,23.972,1.256,8.4-2.143,6.406-11.382,1.59-16.416-3.234-3.381-7.612-5.418-12-7.034-10.42-3.833-21.307-4.63-31.938-7.443-9.743-2.577-21.05-5.05-30.434.039a11.6,11.6,0,0,0-4.537,4.6,14.023,14.023,0,0,0-1.364,3.17,7.246,7.246,0,0,0-.211,2.269,4.5,4.5,0,0,1,.056,1.712,20.409,20.409,0,0,1,3.868-3.036l5.946-3.085a1.068,1.068,0,0,1,1.221-.04c10.143,4.72,20.334,9.467,29.606,15.727C287.185,230.548,288.812,231.715,290.474,232.83Z" transform="translate(-224.218 -108.29)" fill="#fff" stroke="#222221" stroke-miterlimit="10" stroke-width="0.5"/>
            <path id="Path_21822" data-name="Path 21822" d="M254.045,211.953,251.2,211.1" transform="translate(-222.525 -106.711)" fill="none" stroke="#222221" stroke-miterlimit="10" stroke-width="0.5"/>
            <path id="Path_21823" data-name="Path 21823" d="M243.858,225.944a3.5,3.5,0,0,0,2.075,3.181" transform="translate(-224.473 -102.772)" fill="#fff" stroke="#222221" stroke-miterlimit="10" stroke-width="0.5"/>
            <path id="Path_21824" data-name="Path 21824" d="M310.767,227.861a7.29,7.29,0,0,1-4.407,2.782" transform="translate(-207.889 -102.263)" fill="#fff" stroke="#222221" stroke-miterlimit="10" stroke-width="0.5"/>
            <path id="Path_21825" data-name="Path 21825" d="M305.528,230.583l-2.613.482" transform="translate(-208.803 -101.541)" fill="#fff" stroke="#222221" stroke-miterlimit="10" stroke-width="0.5"/>
          </g>
          <path id="Path_21826" data-name="Path 21826" d="M273.382,445.085a3.253,3.253,0,0,1-.368.076q-1.478.021-2.956.084c-.252,0-.5.013-.743.033q-1.765.08-3.529.2c-9.164.658-18.536,2.147-27.577,2.322a27.035,27.035,0,0,1-9.348-1.034c-7.4-2.614,1.618-6.045,4.55-7.56,3.081-1.593,5.752-3.092,9.042-4.426a71.323,71.323,0,0,0,11.959-6.222,61.929,61.929,0,0,0,16.1,1.406C273.286,429.846,277.406,443.912,273.382,445.085Z" transform="translate(-226.014 -49.011)" fill="#161111"/>
          <path id="Path_21827" data-name="Path 21827" d="M296.347,216.305c-.688-9.307-2.288-19.357-5.384-28.161" transform="translate(-208.781 -112.802)" fill="none" stroke="#000" stroke-miterlimit="10" stroke-width="0.5"/>
          <path id="Path_21828" data-name="Path 21828" d="M253.626,210.465q-2.027-11.13-4.055-22.26" transform="translate(-219.763 -112.785)" fill="none" stroke="#000" stroke-miterlimit="10" stroke-width="0.5"/>
          <path id="Path_21829" data-name="Path 21829" d="M275.294,315.875l3.318-43.4" transform="translate(-212.938 -90.426)" fill="none" stroke="#1ebfd9" stroke-miterlimit="10" stroke-width="0.5"/>
          <path id="Path_21830" data-name="Path 21830" d="M260.849,146.6a3.91,3.91,0,0,1,4.52,3.881" transform="translate(-216.771 -123.837)" fill="#fff" stroke="#000" stroke-miterlimit="10" stroke-width="0.5"/>
          <g id="Group_18862" data-name="Group 18862" transform="translate(48.412 16.617)">
            <path id="Path_26163" data-name="Path 26163" d="M643.911,133.242a2.533,2.533,0,0,1,.321-1.4l.089-.054a1.167,1.167,0,0,1,1.016.009,1.081,1.081,0,0,1,.423.84,3.868,3.868,0,0,1-.206,1.327,2.671,2.671,0,0,1-.253.667.725.725,0,0,1-1.378-.221A2.729,2.729,0,0,1,643.911,133.242Z" transform="translate(-627.036 -126.513)" fill="#171714"/>
            <path id="Path_26164" data-name="Path 26164" d="M654.041,133.22a2.533,2.533,0,0,1,.321-1.4l.089-.054a1.167,1.167,0,0,1,1.016.009,1.085,1.085,0,0,1,.423.84,3.871,3.871,0,0,1-.206,1.327,2.671,2.671,0,0,1-.253.667.725.725,0,0,1-1.378-.221A2.729,2.729,0,0,1,654.041,133.22Z" transform="translate(-648.581 -126.491)" fill="#171714"/>
            <path id="Path_26165" data-name="Path 26165" d="M649.949,134.174q-.036,1.506-.072,3.013l2.132-.306c.152-.022.347-.023.415.116a.356.356,0,0,1-.012.26,4.269,4.269,0,0,1-2.982,2.8" transform="translate(-638.333 -126.513)" fill="none" stroke="#171714" stroke-linecap="round" stroke-linejoin="round" stroke-width="0.5"/>
            <g id="Group_18861" data-name="Group 18861" transform="translate(4.558)">
              <path id="Path_26166" data-name="Path 26166" d="M658.761,126.981a1.14,1.14,0,0,0-.69-.339,2.878,2.878,0,0,0-.77-.022c-.024,0-.047.006-.071.008a2.833,2.833,0,0,0-.387.062,2.731,2.731,0,0,0-.444.142c-.015.007-.031.011-.046.017a2.932,2.932,0,0,0-.46.253c-.016.011-.034.017-.051.028l.008,0c-.024.016-.049.026-.073.044a1.6,1.6,0,0,0-.613.756.894.894,0,0,0,.214.956.942.942,0,0,0,.582.136l.866.009a3.786,3.786,0,0,0,1.114-.1,1.46,1.46,0,0,0,.9-.7A1.178,1.178,0,0,0,658.761,126.981Z" transform="translate(-655.112 -126.513)" fill="#171714"/>
              <path id="Path_26167" data-name="Path 26167" d="M647.649,126.889a1.137,1.137,0,0,0-.689-.339,2.881,2.881,0,0,0-.77-.022c-.025,0-.047.006-.071.008a2.824,2.824,0,0,0-.388.062,2.6,2.6,0,0,0-.443.142c-.016.007-.032.011-.047.017a2.976,2.976,0,0,0-.46.253c-.016.011-.034.017-.05.028l.007,0c-.024.016-.049.026-.072.043a1.59,1.59,0,0,0-.613.757.891.891,0,0,0,.213.956.942.942,0,0,0,.582.136l.866.009a3.8,3.8,0,0,0,1.115-.1,1.462,1.462,0,0,0,.9-.7A1.178,1.178,0,0,0,647.649,126.889Z" transform="translate(-632.89 -126.513)" fill="#171714"/>
            </g>
            <path id="Path_26168" data-name="Path 26168" d="M639.408,132.653a5.4,5.4,0,1,0,5.4-5.4A5.4,5.4,0,0,0,639.408,132.653Z" transform="translate(-626.079 -126.513)" fill="none" stroke="#171714" stroke-linecap="round" stroke-linejoin="round" stroke-width="0.5"/>
            <path id="Path_26169" data-name="Path 26169" d="M652.737,132.906a5.4,5.4,0,1,0,5.4-5.4A5.4,5.4,0,0,0,652.737,132.906Z" transform="translate(-652.737 -126.513)" fill="none" stroke="#171714" stroke-linecap="round" stroke-linejoin="round" stroke-width="0.5"/>
          </g>
        </g>
        <g id="Group_9247" data-name="Group 9247" transform="translate(243.166 283.327)">
          <g id="Group_9246" data-name="Group 9246" transform="translate(18.744 5.009)">
            <path id="Path_21833" data-name="Path 21833" d="M226.62,276.316l-.086-3.19c6.847-.185,11.118-1.273,12.7-6.282a6.927,6.927,0,0,0-.786-5.983,7.032,7.032,0,0,0-4.693-2.728,11,11,0,0,0-5.845.858l-1.227-2.947a14.146,14.146,0,0,1,7.555-1.065,10.219,10.219,0,0,1,6.811,4.033,10.035,10.035,0,0,1,1.229,8.79C239.707,275.963,231.194,276.194,226.62,276.316Z" transform="translate(-226.534 -254.841)" fill="#d47172"/>
          </g>
          <path id="Path_21834" data-name="Path 21834" d="M234.907,280.644H212.785l-1.064-29.762h24.251Z" transform="translate(-211.721 -250.882)" fill="#d47172"/>
          <line id="Line_1" data-name="Line 1" y2="13.049" transform="translate(21.349 5.328)" fill="#5f76e8" stroke="#000" stroke-miterlimit="10" stroke-width="0.5"/>
          <path id="Path_21835" data-name="Path 21835" d="M228.448,267.143v2.939" transform="translate(-207.282 -246.567)" fill="#5f76e8" stroke="#000" stroke-miterlimit="10" stroke-width="0.5"/>
        </g>
        <g id="Group_9248" data-name="Group 9248" transform="translate(187.43 312.568)">
          <line id="Line_2" data-name="Line 2" x2="3.16" y2="216.57" transform="translate(329.087 5.678)" fill="none" stroke="#4764a8" stroke-miterlimit="10" stroke-width="3"/>
          <line id="Line_3" data-name="Line 3" x1="9.579" y2="216.57" transform="translate(9.931 5.678)" fill="none" stroke="#4764a8" stroke-miterlimit="10" stroke-width="3"/>
          <rect id="Rectangle_1292" data-name="Rectangle 1292" width="343.337" height="8.05" fill="#4764a8"/>
        </g>
        <g id="Group_9249" data-name="Group 9249" transform="translate(343.637 275.991)">
          <path id="Path_21836" data-name="Path 21836" d="M312.894,276.189l75.67,0c1.111,0,2.319-3.42,2.319-3.42,0-1.112-.958-.6-2.069-.6h-75.92a2.013,2.013,0,0,0-2.013,2.013h0A2.012,2.012,0,0,0,312.894,276.189Z" transform="translate(-310.881 -237.93)"/>
          <path id="Path_21837" data-name="Path 21837" d="M321.373,281.486h66.444l13.8-34.082a1.687,1.687,0,0,0-1.564-2.321h-62.8a1.687,1.687,0,0,0-1.565,1.054Z" transform="translate(-308.097 -245.084)"/>
          <path id="Path_21838" data-name="Path 21838" d="M359.251,259.34a4.654,4.654,0,0,1-4.14,2.6c-1.737,0-2.7-1.164-2.15-2.6a4.653,4.653,0,0,1,4.14-2.6C358.838,256.74,359.8,257.9,359.251,259.34Z" transform="translate(-299.757 -241.991)" fill="none" stroke="#fff" stroke-miterlimit="10" stroke-width="0.5"/>
        </g>
        <g id="Group_9254" data-name="Group 9254" transform="translate(452.056 235.238)">
          <g id="Group_9253" data-name="Group 9253" transform="translate(0)">
            <g id="Group_9250" data-name="Group 9250">
              <path id="Path_21839" data-name="Path 21839" d="M418.825,192.016a52.99,52.99,0,0,1,3.928-4.692,41.884,41.884,0,0,1,9.211-7.313c1.786,6.587.053,13.87-3.245,19.684a49.985,49.985,0,0,1-7.682,9.923c-1.608,1.669-3.286,3.2-4.954,4.822-.142.14-.338.286-.5.185a.561.561,0,0,1-.181-.425c-.759-6.211-1.451-12.893,1.154-18.446A23.432,23.432,0,0,1,418.825,192.016Z" transform="translate(-394.745 -180.01)" fill="#a8dca4"/>
              <path id="Path_21840" data-name="Path 21840" d="M390.4,203.657a49.7,49.7,0,0,0,1.209,12.517c1.084,4.033,3.292,7.862,6.627,9.823a41.421,41.421,0,0,0,5.762,2.3,9.532,9.532,0,0,1,4.8,3.857c.608-5.738-1.957-11.915-4.709-16.6A27.115,27.115,0,0,0,390.4,203.657Z" transform="translate(-390.395 -184.241)" fill="#a8dca4"/>
              <path id="Path_21841" data-name="Path 21841" d="M426.539,217.489c4.77-3.553,10.477-5.11,16.07-6.51-1.636,5.1-3.35,10.35-6.621,14.35a21.78,21.78,0,0,1-11.714,7.2c-.835.206-6.054,2.447-6.384,2.242-.815-.5.465-3.757.648-4.533A21.367,21.367,0,0,1,426.539,217.489Z" transform="translate(-395.266 -185.551)" fill="#a8dca4"/>
              <path id="Path_21842" data-name="Path 21842" d="M415.813,249.386a58.146,58.146,0,0,1,1.437-11.223,19.489,19.489,0,0,1,5.529-9.708c3.864-3.44,9.578-4.858,12.278-9.272" transform="translate(-394.943 -187.019)" fill="none" stroke="#1c0c03" stroke-miterlimit="10" stroke-width="0.5"/>
              <path id="Path_21843" data-name="Path 21843" d="M419.764,205.525a17.02,17.02,0,0,1-1.038,3.348,58.714,58.714,0,0,0-3.984,14.518c-.441,4.027-.17,8.1-.419,12.14-.073,1.184-.191,2.364-.308,3.545l-.39,3.921" transform="translate(-394.552 -184.575)" fill="none" stroke="#1c0c03" stroke-miterlimit="10" stroke-width="0.5"/>
              <path id="Path_21844" data-name="Path 21844" d="M400.282,218.131c.3,2.669,1.914,5,3.658,7.046,3.039,3.563,6.71,6.84,6.666,11.855-.022,2.48-.623,4.92-.815,7.393" transform="translate(-392.164 -186.831)" fill="none" stroke="#1c0c03" stroke-miterlimit="10" stroke-width="0.5"/>
            </g>
            <g id="Group_9252" data-name="Group 9252" transform="translate(9.274 54.771)">
              <g id="Group_9251" data-name="Group 9251">
                <path id="Path_21845" data-name="Path 21845" d="M403.907,269.981s18.223.108,18.231,0l1.158-19.052H402.462S403.9,269.945,403.907,269.981Z" transform="translate(-401.828 -247.47)" fill="#edbf34"/>
                <path id="Path_21846" data-name="Path 21846" d="M403.814,256.69a2.68,2.68,0,0,0,1.1-.709,2.929,2.929,0,0,1,2.7-1.485c1.47-.113,2.932-.3,4.391-.5a7.293,7.293,0,0,0,3.647-1.3,2.361,2.361,0,0,0,.974-1.3,1.071,1.071,0,0,0-.739-1.29,1.635,1.635,0,0,0-.342-.007c-1.034.052-13.034,1.253-13.085.683.186,2.076.425,4.161.545,6.239C403.254,256.9,403.536,256.8,403.814,256.69Z" transform="translate(-401.828 -247.32)" fill="#1c0c03"/>
                <path id="Path_21847" data-name="Path 21847" d="M424.012,246.716l-21.779.03a3.089,3.089,0,0,0-.543.051v5.036a3.108,3.108,0,0,0,.543.052l21.325-.044Z" transform="translate(-401.69 -246.716)" fill="#edbf34"/>
              </g>
            </g>
          </g>
          <path id="Path_21848" data-name="Path 21848" d="M444.045,218.509a35.6,35.6,0,0,1-1.816,4.281" transform="translate(-399.669 -186.898)" fill="none" stroke="#222221" stroke-miterlimit="10" stroke-width="0.5"/>
          <path id="Path_21849" data-name="Path 21849" d="M433.936,190.225a29.69,29.69,0,0,1-2.227,6.871" transform="translate(-397.787 -181.838)" fill="none" stroke="#222221" stroke-miterlimit="10" stroke-width="0.5"/>
          <path id="Path_21850" data-name="Path 21850" d="M430.945,200.016l-1.347,2.409" transform="translate(-397.409 -183.59)" fill="none" stroke="#222221" stroke-miterlimit="10" stroke-width="0.5"/>
          <path id="Path_21851" data-name="Path 21851" d="M426.1,256.276q-.119,3.506-.4,7.005" transform="translate(-396.712 -193.656)" fill="none" stroke="#222221" stroke-miterlimit="10" stroke-width="0.5"/>
          <path id="Path_21852" data-name="Path 21852" d="M425.748,265.835l-.11,1.494" transform="translate(-396.701 -195.366)" fill="none" stroke="#222221" stroke-miterlimit="10" stroke-width="0.5"/>
        </g>
        <path id="Path_21853" data-name="Path 21853" d="M332.823,221.479a2.542,2.542,0,0,0,3.205.511" transform="translate(38.578 24.644)" fill="none" stroke="#000" stroke-miterlimit="10" stroke-width="0.5"/>
      </g>
    </g>
  </g>
  <g id="Group_18864" data-name="Group 18864" transform="translate(1 -9)">
    <path id="Path_21857" data-name="Path 21857" d="M162.666,336.741c10.96-4.341,16.536-19.749,13.9-30.689-2.57-10.684-11.334-18.681-20.257-25.094s-18.69-12.191-25.073-21.134c-14.478-20.285-15.152-60.444-49.458-58.907-6.125.274-11.988,2.676-17.235,5.847a61.423,61.423,0,0,0-25.017,29.408c-2.615,6.5-2.433,13.22-3.451,20.026-1.152,7.7-3.3,15.53-3.518,23.324a81.355,81.355,0,0,0,13.833,47.893c4.218,6.3,9.269,12.487,17.276,13.444,4.276.511,8.59-.15,12.875-.567,5.637-.548,11.307-.673,16.969-.8,13.334-.291,26.674-.582,40.006-.2,8.487.241,17.115.739,25.347-1.343A30.832,30.832,0,0,0,162.666,336.741Z" transform="translate(38.739 -10.46)" fill="#fff"/>
    <g id="Group_9257" data-name="Group 9257" transform="translate(-631.964 -699.583)">
      <g id="Group_18847" data-name="Group 18847" transform="translate(720.004 949.093)">
        <rect id="Rectangle_1315" data-name="Rectangle 1315" width="96.003" height="58.06" transform="translate(12.773 23.015)" fill="#00ccc1"/>
        <g id="Group_18846" data-name="Group 18846" transform="translate(0)">
          <g id="Group_18845" data-name="Group 18845">
            <g transform="matrix(1, 0, 0, 1, -89.04, -240.51)" filter="url(#Path_26111)">
              <path id="Path_26111-2" data-name="Path 26111" d="M733.359,949.093c-5.72,9.518-10.248,15.56-13.18,26.572-.936,3.512,2.008,6.323,5.773,6.323a8.007,8.007,0,0,0,7.7-6.287c2.339-10.926,5.969-16.8,10.255-26.57-4.217-.015-6.329-.025-10.547-.038Z" transform="translate(-630.96 -708.58)" fill="#0cbbe1"/>
            </g>
            <g transform="matrix(1, 0, 0, 1, -89.04, -240.51)" filter="url(#Path_26112)">
              <path id="Path_26112-2" data-name="Path 26112" d="M906.859,949.587c-4.286,9.766-7.916,15.644-10.255,26.57-.746,3.485,2.224,6.29,5.989,6.29a7.614,7.614,0,0,0,7.485-6.251c1.742-10.841,4.476-16.557,7.328-26.57l-10.546-.039Z" transform="translate(-793.92 -709.04)" fill="#fef2f4"/>
            </g>
            <g transform="matrix(1, 0, 0, 1, -89.04, -240.51)" filter="url(#Path_26113)">
              <path id="Path_26113-2" data-name="Path 26113" d="M1080.266,950.1c-2.852,10.013-5.586,15.729-7.328,26.57-.558,3.457,2.439,6.251,6.2,6.251a7.234,7.234,0,0,0,7.273-6.215c1.15-10.753,2.984-16.308,4.4-26.567-4.22-.014-6.327-.024-10.546-.039Z" transform="translate(-956.78 -709.51)" fill="#0cbbe1"/>
            </g>
            <g transform="matrix(1, 0, 0, 1, -89.04, -240.51)" filter="url(#Path_26114)">
              <path id="Path_26114-2" data-name="Path 26114" d="M1253.522,950.6c-1.416,10.259-3.25,15.813-4.4,26.567-.368,3.432,2.653,6.215,6.418,6.215a6.869,6.869,0,0,0,7.053-6.18c.555-10.665,1.49-16.055,1.472-26.562Z" transform="translate(-1119.49 -709.98)" fill="#fef2f4"/>
            </g>
            <g transform="matrix(1, 0, 0, 1, -89.04, -240.51)" filter="url(#Path_26115)">
              <path id="Path_26115-2" data-name="Path 26115" d="M1426.587,951.125c.019,10.506-.916,15.9-1.471,26.562-.177,3.4,2.868,6.188,6.634,6.188s6.851-2.776,6.839-6.15c-.04-10.579,0-15.8-1.456-26.56-4.218-.015-6.327-.025-10.546-.039Z" transform="translate(-1282.01 -710.46)" fill="#0cbbe1"/>
            </g>
            <g transform="matrix(1, 0, 0, 1, -89.04, -240.51)" filter="url(#Path_26116)">
              <path id="Path_26116-2" data-name="Path 26116" d="M1581.957,951.638c1.453,10.757,1.416,15.981,1.456,26.56.012,3.374,3.085,6.15,6.848,6.15s6.827-2.768,6.624-6.114c-.635-10.49-1.5-15.554-4.382-26.558Z" transform="translate(-1426.83 -710.93)" fill="#fef2f4"/>
            </g>
            <g transform="matrix(1, 0, 0, 1, -89.04, -240.51)" filter="url(#Path_26117)">
              <path id="Path_26117-2" data-name="Path 26117" d="M1719.517,952.133c2.886,11,3.747,16.068,4.382,26.558a6.891,6.891,0,0,0,7.066,6.114c3.764,0,6.8-2.755,6.406-6.075-1.229-10.407-2.989-15.3-7.311-26.554-4.219-.016-6.325-.027-10.544-.043Z" transform="translate(-1553.85 -711.39)" fill="#0cbbe1"/>
            </g>
            <g transform="matrix(1, 0, 0, 1, -89.04, -240.51)" filter="url(#Path_26118)">
              <path id="Path_26118-2" data-name="Path 26118" d="M1857.041,952.693c4.322,11.25,6.082,16.147,7.311,26.554a7.246,7.246,0,0,0,7.282,6.078c3.765,0,6.773-2.749,6.191-6.042-1.824-10.32-4.48-15.057-10.237-26.553Z" transform="translate(-1680.83 -711.91)" fill="#fef2f4"/>
            </g>
            <g transform="matrix(1, 0, 0, 1, -89.04, -240.51)" filter="url(#Path_26119)">
              <path id="Path_26119-2" data-name="Path 26119" d="M1994.619,953.18c5.757,11.5,8.413,16.233,10.237,26.553a7.625,7.625,0,0,0,7.493,6.045c3.764,0,6.751-2.742,5.977-6.009-2.417-10.231-5.973-14.8-13.162-26.549-4.219-.012-6.326-.026-10.546-.04Z" transform="translate(-1807.86 -712.36)" fill="#0cbbe1"/>
            </g>
          </g>
        </g>
        <rect id="Rectangle_1316" data-name="Rectangle 1316" width="25.555" height="42.37" transform="translate(20.351 38.705)" fill="#009991"/>
        <path id="Path_26136" data-name="Path 26136" d="M0,0H44.187V32.927H0Z" transform="translate(57.43 41.787)" fill="#91d3cf" opacity="0.52"/>
        <path id="Path_26120" data-name="Path 26120" d="M1029.023,1505.972h-3.378l5.879-16.884h3.377Z" transform="translate(-1002.212 -1447.69)" fill="#fff" opacity="0.5"/>
        <path id="Path_26121" data-name="Path 26121" d="M1161.337,1761.145h-3.558l6.193-17.791h3.558Z" transform="translate(-1124.217 -1682.462)" fill="#fff" opacity="0.5"/>
        <path id="Path_26122" data-name="Path 26122" d="M1120.6,1505.972h-5.065l5.877-16.884h5.067l-5.879,16.884Z" transform="translate(-1085.215 -1447.69)" fill="#fff" opacity="0.5"/>
        <path id="Path_26123" data-name="Path 26123" d="M1023.461,1761.571h-5.333l6.188-17.777h5.334l-6.189,17.777Z" transform="translate(-995.272 -1682.868)" fill="#fff" opacity="0.5"/>
        <path id="Path_26124" data-name="Path 26124" d="M1469.1,1513.353V1504.5l5.366-15.412h3.082Z" transform="translate(-1411.666 -1447.69)" fill="#fff" opacity="0.5"/>
        <path id="Path_26125" data-name="Path 26125" d="M1817.884,1522.411h-4.625l11.6-33.314h4.624Z" transform="translate(-1729.443 -1447.697)" fill="#fff" opacity="0.5"/>
        <rect id="Rectangle_1318" data-name="Rectangle 1318" width="47.951" height="3.082" transform="translate(55.199 38.705)" fill="#009991"/>
        <rect id="Rectangle_1319" data-name="Rectangle 1319" width="21.578" height="16.831" transform="translate(22.34 41.399)" fill="#fff" opacity="0.52"/>
        <path id="Path_26134" data-name="Path 26134" d="M0,0H21.578V17.728H0Z" transform="translate(22.34 60.926)" fill="#fff" opacity="0.57"/>
      </g>
      <g id="Group_18848" data-name="Group 18848" transform="translate(824.548 994.32)">
        <path id="Path_26126" data-name="Path 26126" d="M2149.161,1540.407a1.394,1.394,0,0,0-1.394-1.394H2134.82a1.394,1.394,0,0,0-1.394,1.394v5.17a1.394,1.394,0,0,0,1.394,1.394h12.947a1.394,1.394,0,0,0,1.394-1.394Z" transform="translate(-2129.609 -1539.013)" fill="#6464a5" fill-rule="evenodd"/>
        <path id="Path_26127" data-name="Path 26127" d="M2180.638,1540.407a1.394,1.394,0,0,0-1.394-1.394h-10.333a1.394,1.394,0,0,0-1.394,1.394v5.17a1.394,1.394,0,0,0,1.394,1.394h10.333a1.394,1.394,0,0,0,1.394-1.394Z" transform="translate(-2161.086 -1539.013)" fill="#36378a" fill-rule="evenodd"/>
        <path id="Path_26128" data-name="Path 26128" d="M2179.235,1540.407a1.394,1.394,0,0,0-1.394-1.394h-8.93a1.394,1.394,0,0,0-1.394,1.394v5.17a1.394,1.394,0,0,0,1.394,1.394h8.93a1.394,1.394,0,0,0,1.394-1.394Z" transform="translate(-2161.086 -1539.013)" fill="#4c4d97" fill-rule="evenodd"/>
        <path id="Path_26129" data-name="Path 26129" d="M2088.6,1642.816h13.459l4.013,5.276a4.613,4.613,0,0,1,.942,2.792v4.55c0,12.967-.243,14.165-.676,14.6a2.3,2.3,0,0,1-1.629.675h-18.759a2.3,2.3,0,0,1-2.3-2.3v-17.517a4.612,4.612,0,0,1,.941-2.792l4.013-5.276Z" transform="translate(-2083.641 -1634.858)" fill="#6d7bed" fill-rule="evenodd"/>
        <path id="Path_26130" data-name="Path 26130" d="M2142.563,1642.816h10.112l3.015,5.276a5.674,5.674,0,0,1,.707,2.792v4.55c0,12.967-.183,14.165-.507,14.6a1.55,1.55,0,0,1-1.225.675h-14.093a1.548,1.548,0,0,1-1.224-.675,2.737,2.737,0,0,1-.508-1.63v-17.517a5.672,5.672,0,0,1,.707-2.792l3.015-5.276Z" transform="translate(-2134.608 -1634.858)" fill="#6d7bed" fill-rule="evenodd"/>
        <path id="Path_26135" data-name="Path 26135" d="M0,0H23.369V13.26H0Z" transform="translate(0 17.669)" fill="#fff"/>
        <path id="Path_26131" data-name="Path 26131" d="M2319.636,1642.816l4.013,5.276a4.613,4.613,0,0,1,.942,2.792v4.55c0,12.967-.243,14.165-.676,14.6a2.305,2.305,0,0,1-1.63.675h-1.007a1.55,1.55,0,0,0,1.225-.675c.324-.432.507-1.63.507-14.6v-4.55a5.672,5.672,0,0,0-.707-2.792l-3.015-5.276Z" transform="translate(-2301.222 -1634.858)" fill="#2d2e85" fill-rule="evenodd" opacity="0.23"/>
      </g>
      <path id="Path_26132" data-name="Path 26132" d="M1632.662,1589.369h-2.517a1.967,1.967,0,0,0-1.391.576l-.747.747a1.967,1.967,0,0,0,0,2.782l.7.7a1.968,1.968,0,0,0,1.391.576h2.565a2.691,2.691,0,0,0,2.691-2.691h0A2.691,2.691,0,0,0,1632.662,1589.369Zm-16.292,2.69h0a2.691,2.691,0,0,0,2.69,2.691h2.565a1.968,1.968,0,0,0,1.391-.576l.7-.7a1.967,1.967,0,0,0,0-2.782l-.748-.747a1.966,1.966,0,0,0-1.391-.576h-2.517A2.69,2.69,0,0,0,1616.37,1592.059Zm6.8-6.8v2.517a1.968,1.968,0,0,0,.576,1.391l.747.747a1.967,1.967,0,0,0,2.783,0l.7-.7a1.967,1.967,0,0,0,.576-1.391v-2.565a2.69,2.69,0,0,0-2.69-2.691h0A2.691,2.691,0,0,0,1623.171,1585.259Zm2.691,16.292h0a2.69,2.69,0,0,0,2.69-2.691v-2.565a1.967,1.967,0,0,0-.576-1.391l-.7-.7a1.967,1.967,0,0,0-2.783,0l-.747.748a1.967,1.967,0,0,0-.576,1.391v2.517A2.691,2.691,0,0,0,1625.861,1601.55Z" transform="translate(-827.645 -584.909)" fill="#fff" fill-rule="evenodd"/>
      <path id="Path_26133" data-name="Path 26133" d="M2187.768,1795.228h-1.315a1.027,1.027,0,0,0-.727.3l-.391.39a1.028,1.028,0,0,0,0,1.454l.365.365a1.028,1.028,0,0,0,.727.3h1.341a1.406,1.406,0,0,0,1.406-1.406h0A1.406,1.406,0,0,0,2187.768,1795.228Zm-8.512,1.406h0a1.406,1.406,0,0,0,1.406,1.406H2182a1.028,1.028,0,0,0,.727-.3l.365-.365a1.028,1.028,0,0,0,0-1.454l-.391-.39a1.028,1.028,0,0,0-.727-.3h-1.315A1.406,1.406,0,0,0,2179.256,1796.634Zm3.553-3.553v1.315a1.028,1.028,0,0,0,.3.727l.391.39a1.028,1.028,0,0,0,1.454,0l.365-.365a1.028,1.028,0,0,0,.3-.727v-1.34a1.406,1.406,0,0,0-1.406-1.406h0A1.406,1.406,0,0,0,2182.809,1793.081Zm1.406,8.512h0a1.406,1.406,0,0,0,1.406-1.406v-1.34a1.027,1.027,0,0,0-.3-.727l-.365-.365a1.028,1.028,0,0,0-1.454,0l-.391.39a1.028,1.028,0,0,0-.3.727v1.315A1.406,1.406,0,0,0,2184.215,1801.593Z" transform="translate(-1347.378 -777.985)" fill="#0cbce2" fill-rule="evenodd"/>
    </g>
    <g id="Group_18868" data-name="Group 18868" transform="translate(136.885 234.398)">
      <ellipse id="Ellipse_299" data-name="Ellipse 299" cx="13.172" cy="13.172" rx="13.172" ry="13.172" transform="translate(0 26.004) rotate(-80.783)" fill="#00ccc1"/>
      <g id="Group_9978" data-name="Group 9978" transform="translate(2.561 0.609)">
        <path id="Path_23060" data-name="Path 23060" d="M489.143,50.772a12.551,12.551,0,1,0,12.551,12.551A12.565,12.565,0,0,0,489.143,50.772Z" transform="translate(-476.592 -50.772)" fill="none" stroke="#000" stroke-width="1"/>
      </g>
      <g id="tick" transform="translate(9.443 9.515)">
        <g id="Group_18802" data-name="Group 18802" transform="translate(0)">
          <path id="Path_26060" data-name="Path 26060" d="M13.206,68.194a.67.67,0,0,0-.948,0L4.229,76.222,1.143,73.136a.67.67,0,0,0-.948.948l3.56,3.56a.67.67,0,0,0,.948,0l8.5-8.5A.67.67,0,0,0,13.206,68.194Z" transform="translate(0 -67.997)" fill="#fff"/>
        </g>
      </g>
    </g>
    <g id="Group_18877" data-name="Group 18877" transform="translate(340.64 252.458) rotate(-90)">
      <g id="Group_18871" data-name="Group 18871" transform="translate(51.761 0)">
        <path id="Path_26170" data-name="Path 26170" d="M.208,1.908,2.963.152A.971.971,0,0,1,4.053.184h0A.972.972,0,0,1,4.426,1.21l-.8,3.167a.449.449,0,0,1-.7.253h0a.451.451,0,0,1-.183-.314l-.11-.99a.919.919,0,0,0-1.1-.8l-.993.2a.449.449,0,0,1-.352-.076h0A.449.449,0,0,1,.208,1.908Z" fill="#4bcfc8"/>
      </g>
      <g id="Group_18875" data-name="Group 18875" transform="translate(0 3.126)">
        <g id="Group_18872" data-name="Group 18872" transform="translate(0 4.985)">
          <path id="Path_26171" data-name="Path 26171" d="M1.223,0a.378.378,0,0,0-.161.036A8.673,8.673,0,0,0,.177.5a.381.381,0,0,0,.407.644h0a8.16,8.16,0,0,1,.8-.419A.381.381,0,0,0,1.223,0Z" fill="#4bcfc8"/>
        </g>
        <g id="Group_18873" data-name="Group 18873" transform="translate(2.611 2.187)">
          <path id="Path_26172" data-name="Path 26172" d="M48.92,0a.38.38,0,0,0-.269.111c-.427.426-.892.848-1.383,1.253a.381.381,0,0,0,.486.587c.509-.421.991-.859,1.435-1.3A.381.381,0,0,0,48.92,0ZM7.876,1.039a.381.381,0,0,0-.008.762c.616.012,1.246.048,1.871.105a.381.381,0,0,0,.07-.759c-.644-.059-1.291-.1-1.925-.108Zm-1.9.033H5.954c-.647.036-1.294.1-1.923.185a.381.381,0,0,0,.1.754C4.744,1.929,5.37,1.868,6,1.833a.381.381,0,0,0-.021-.761Zm5.684.312a.381.381,0,0,0-.06.757c.608.1,1.229.217,1.843.356a.381.381,0,0,0,.168-.743c-.63-.142-1.266-.265-1.89-.365A.367.367,0,0,0,11.66,1.384Zm-9.447.209a.373.373,0,0,0-.085.01c-.641.146-1.269.32-1.867.518A.381.381,0,0,0,.5,2.844c.575-.19,1.18-.358,1.8-.5a.381.381,0,0,0-.084-.752Zm13.156.625a.381.381,0,0,0-.105.747c.592.171,1.195.363,1.792.571a.381.381,0,0,0,.251-.719c-.61-.213-1.226-.409-1.832-.584A.378.378,0,0,0,15.369,2.219ZM46,2.428a.378.378,0,0,0-.218.068c-.507.354-1.037.694-1.576,1.01a.381.381,0,0,0,.386.656c.556-.327,1.1-.677,1.625-1.042A.381.381,0,0,0,46,2.428ZM18.958,3.469a.381.381,0,0,0-.144.734c.572.233,1.153.486,1.727.752a.381.381,0,0,0,.321-.691c-.584-.271-1.177-.529-1.76-.767A.378.378,0,0,0,18.958,3.469Zm23.763.886a.382.382,0,0,0-.168.039c-.559.274-1.134.53-1.711.761a.381.381,0,1,0,.283.707c.594-.238,1.188-.5,1.763-.785a.381.381,0,0,0-.168-.723Zm-20.28.639a.381.381,0,0,0-.142.734c.6.241,1.208.463,1.811.658a.381.381,0,1,0,.235-.724c-.586-.19-1.179-.406-1.762-.64A.379.379,0,0,0,22.442,4.995Zm16.752.773a.38.38,0,0,0-.114.018c-.595.187-1.2.353-1.806.492a.381.381,0,0,0,.172.742c.623-.144,1.25-.315,1.863-.508a.381.381,0,0,0-.114-.744Zm-13.138.4a.381.381,0,0,0-.091.75c.626.154,1.262.286,1.89.391a.381.381,0,0,0,.126-.751c-.609-.1-1.226-.23-1.833-.38A.369.369,0,0,0,26.056,6.166Zm9.436.457a.377.377,0,0,0-.057,0c-.615.092-1.24.161-1.86.2a.381.381,0,0,0,.053.76c.639-.045,1.285-.115,1.92-.211a.381.381,0,0,0-.056-.758ZM29.8,6.794a.381.381,0,0,0-.033.76c.64.057,1.289.089,1.929.1a.381.381,0,0,0,.008-.761c-.62-.006-1.249-.037-1.869-.093Z" fill="#4bcfc8"/>
        </g>
        <g id="Group_18874" data-name="Group 18874" transform="translate(52.421 0)">
          <path id="Path_26173" data-name="Path 26173" d="M.943,0A.381.381,0,0,0,.626.169C.463.412.28.662.082.913a.381.381,0,1,0,.6.472c.21-.266.405-.532.579-.792A.381.381,0,0,0,.943,0Z" fill="#4bcfc8"/>
        </g>
      </g>
    </g>
    <g id="Group_18878" data-name="Group 18878" transform="translate(229.013 301.869)">
      <g id="Group_18871-2" data-name="Group 18871" transform="translate(0 8.247)">
        <path id="Path_26170-2" data-name="Path 26170" d="M2652.17,1989.131l-2.755,1.756a.971.971,0,0,1-1.091-.032h0a.972.972,0,0,1-.372-1.026l.8-3.167a.449.449,0,0,1,.7-.253h0a.451.451,0,0,1,.183.314l.11.99a.919.919,0,0,0,1.1.8l.993-.2a.449.449,0,0,1,.352.076h0A.449.449,0,0,1,2652.17,1989.131Z" transform="translate(-2647.923 -1986.324)" fill="#4bcfc8"/>
      </g>
      <g id="Group_18875-2" data-name="Group 18875" transform="translate(2.471)">
        <g id="Group_18872-2" data-name="Group 18872" transform="translate(52.141 3.648)">
          <path id="Path_26171-2" data-name="Path 26171" d="M1832.705,1915.049a.378.378,0,0,0,.161-.036,8.673,8.673,0,0,0,.885-.465.381.381,0,0,0-.407-.644h0a8.16,8.16,0,0,1-.8.419.381.381,0,0,0,.162.726Z" transform="translate(-1832.324 -1913.845)" fill="#4bcfc8"/>
        </g>
        <g id="Group_18873-2" data-name="Group 18873" transform="translate(1.834 0)">
          <path id="Path_26172-2" data-name="Path 26172" d="M1873.84,1864.018a.38.38,0,0,0,.269-.111c.427-.426.892-.848,1.383-1.253a.381.381,0,0,0-.486-.587c-.509.421-.991.859-1.435,1.3a.381.381,0,0,0,.269.65Zm41.043-1.039a.381.381,0,0,0,.008-.762c-.616-.012-1.246-.048-1.871-.105a.381.381,0,0,0-.07.759c.644.059,1.291.1,1.925.108Zm1.9-.033h.022c.647-.036,1.294-.1,1.923-.185a.381.381,0,0,0-.1-.754c-.608.084-1.235.144-1.862.179a.381.381,0,0,0,.021.761Zm-5.684-.312a.381.381,0,0,0,.06-.757c-.608-.1-1.229-.217-1.843-.356a.381.381,0,0,0-.168.743c.63.142,1.266.265,1.89.365A.367.367,0,0,0,1911.1,1862.634Zm9.447-.209a.373.373,0,0,0,.085-.01c.641-.146,1.269-.32,1.867-.518a.381.381,0,1,0-.239-.723c-.575.19-1.18.358-1.8.5a.381.381,0,0,0,.084.752Zm-13.156-.625a.381.381,0,0,0,.105-.747c-.592-.171-1.195-.363-1.792-.571a.381.381,0,0,0-.251.719c.61.213,1.226.409,1.832.584A.378.378,0,0,0,1907.392,1861.8Zm-30.628-.209a.378.378,0,0,0,.218-.068c.507-.354,1.037-.694,1.576-1.01a.381.381,0,0,0-.386-.656c-.556.327-1.1.677-1.625,1.042a.381.381,0,0,0,.218.693Zm27.038-1.042a.381.381,0,0,0,.144-.734c-.572-.233-1.153-.486-1.727-.752a.381.381,0,0,0-.321.691c.584.271,1.177.529,1.76.767A.378.378,0,0,0,1903.8,1860.549Zm-23.763-.886a.382.382,0,0,0,.168-.039c.559-.274,1.134-.53,1.711-.761a.381.381,0,1,0-.283-.707c-.594.238-1.187.5-1.763.785a.381.381,0,0,0,.168.723Zm20.28-.639a.381.381,0,0,0,.142-.734c-.6-.241-1.208-.463-1.811-.658a.381.381,0,1,0-.235.724c.586.19,1.179.406,1.762.64A.379.379,0,0,0,1900.318,1859.023Zm-16.752-.773a.38.38,0,0,0,.114-.018c.595-.187,1.2-.353,1.806-.492a.381.381,0,0,0-.172-.742c-.623.144-1.25.315-1.863.508a.381.381,0,0,0,.114.744Zm13.138-.4a.381.381,0,0,0,.091-.75c-.626-.154-1.262-.286-1.89-.391a.381.381,0,1,0-.126.751c.609.1,1.226.23,1.833.38A.369.369,0,0,0,1896.7,1857.852Zm-9.436-.457a.377.377,0,0,0,.057,0c.615-.092,1.24-.161,1.86-.2a.381.381,0,0,0-.053-.76c-.639.045-1.285.115-1.92.211a.381.381,0,0,0,.056.758Zm5.689-.171a.381.381,0,0,0,.033-.76c-.64-.057-1.289-.089-1.929-.1a.381.381,0,0,0-.008.761c.62.006,1.249.037,1.869.093Z" transform="translate(-1873.46 -1856.369)" fill="#4bcfc8"/>
        </g>
        <g id="Group_18874-2" data-name="Group 18874" transform="translate(0 8.307)">
          <path id="Path_26173-2" data-name="Path 26173" d="M2658.7,1988.785a.381.381,0,0,0,.316-.169c.163-.243.346-.494.544-.744a.381.381,0,1,0-.6-.472c-.21.266-.405.532-.579.792a.381.381,0,0,0,.316.593Z" transform="translate(-2658.323 -1987.255)" fill="#4bcfc8"/>
        </g>
      </g>
    </g>
    <g id="Group_18879" data-name="Group 18879" transform="translate(395.012 301.869)">
      <g id="Group_18871-3" data-name="Group 18871" transform="translate(51.761)">
        <path id="Path_26170-3" data-name="Path 26170" d="M2648.13,1988.232l2.755-1.756a.971.971,0,0,1,1.091.032h0a.972.972,0,0,1,.372,1.026l-.8,3.167a.449.449,0,0,1-.7.253h0a.451.451,0,0,1-.183-.314l-.11-.99a.919.919,0,0,0-1.1-.8l-.993.2a.449.449,0,0,1-.352-.076h0A.449.449,0,0,1,2648.13,1988.232Z" transform="translate(-2647.923 -1986.324)" fill="#4bcfc8"/>
      </g>
      <g id="Group_18875-3" data-name="Group 18875" transform="translate(0 3.126)">
        <g id="Group_18872-3" data-name="Group 18872" transform="translate(0 4.985)">
          <path id="Path_26171-3" data-name="Path 26171" d="M1833.547,1913.845a.378.378,0,0,0-.161.036,8.673,8.673,0,0,0-.885.465.381.381,0,0,0,.407.644h0a8.16,8.16,0,0,1,.8-.419.381.381,0,0,0-.162-.726Z" transform="translate(-1832.324 -1913.845)" fill="#4bcfc8"/>
        </g>
        <g id="Group_18873-3" data-name="Group 18873" transform="translate(2.611 2.187)">
          <path id="Path_26172-3" data-name="Path 26172" d="M1922.38,1856.368a.38.38,0,0,0-.269.111c-.427.426-.892.848-1.383,1.253a.381.381,0,0,0,.486.587c.509-.421.991-.859,1.435-1.3a.381.381,0,0,0-.269-.65Zm-41.043,1.039a.381.381,0,0,0-.008.762c.616.012,1.246.048,1.871.105a.381.381,0,0,0,.07-.759c-.644-.059-1.291-.1-1.925-.108Zm-1.9.033h-.022c-.647.036-1.294.1-1.923.185a.381.381,0,0,0,.1.754c.608-.084,1.235-.144,1.862-.179a.381.381,0,0,0-.021-.761Zm5.684.312a.381.381,0,0,0-.06.757c.608.1,1.229.217,1.843.356a.381.381,0,0,0,.168-.743c-.63-.142-1.266-.265-1.89-.365A.367.367,0,0,0,1885.12,1857.753Zm-9.447.209a.373.373,0,0,0-.085.01c-.641.146-1.269.32-1.867.518a.381.381,0,0,0,.239.723c.575-.19,1.18-.358,1.8-.5a.381.381,0,0,0-.084-.752Zm13.156.625a.381.381,0,0,0-.105.747c.592.171,1.195.363,1.792.571a.381.381,0,0,0,.251-.719c-.61-.213-1.226-.409-1.832-.584A.378.378,0,0,0,1888.828,1858.587Zm30.628.209a.378.378,0,0,0-.218.068c-.507.354-1.037.694-1.576,1.01a.381.381,0,0,0,.386.656c.556-.327,1.1-.677,1.625-1.042a.381.381,0,0,0-.218-.693Zm-27.038,1.042a.381.381,0,0,0-.144.734c.572.233,1.153.486,1.727.752a.381.381,0,0,0,.321-.691c-.584-.271-1.177-.529-1.76-.767A.378.378,0,0,0,1892.418,1859.838Zm23.763.886a.382.382,0,0,0-.168.039c-.559.274-1.134.53-1.711.761a.381.381,0,0,0,.283.707c.594-.238,1.188-.5,1.763-.785a.381.381,0,0,0-.168-.723Zm-20.28.639a.381.381,0,0,0-.142.734c.6.241,1.208.463,1.811.658a.381.381,0,1,0,.235-.724c-.586-.19-1.179-.406-1.762-.64A.379.379,0,0,0,1895.9,1861.363Zm16.752.773a.38.38,0,0,0-.114.018c-.595.187-1.2.353-1.806.492a.381.381,0,0,0,.172.742c.623-.144,1.25-.315,1.863-.508a.381.381,0,0,0-.114-.744Zm-13.138.4a.381.381,0,0,0-.091.75c.626.154,1.262.286,1.89.391a.381.381,0,0,0,.126-.751c-.609-.1-1.226-.23-1.833-.38A.369.369,0,0,0,1899.516,1862.535Zm9.436.457a.377.377,0,0,0-.057,0c-.615.092-1.24.161-1.86.2a.381.381,0,0,0,.053.76c.639-.045,1.285-.115,1.92-.211a.381.381,0,0,0-.056-.758Zm-5.689.171a.381.381,0,0,0-.033.76c.64.057,1.289.089,1.929.1a.381.381,0,0,0,.008-.761c-.62-.006-1.249-.037-1.869-.093Z" transform="translate(-1873.46 -1856.368)" fill="#4bcfc8"/>
        </g>
        <g id="Group_18874-3" data-name="Group 18874" transform="translate(52.421)">
          <path id="Path_26173-3" data-name="Path 26173" d="M2659.266,1987.255a.381.381,0,0,0-.316.169c-.163.243-.346.494-.544.744a.381.381,0,1,0,.6.472c.21-.266.405-.532.579-.792a.381.381,0,0,0-.316-.593Z" transform="translate(-2658.323 -1987.255)" fill="#4bcfc8"/>
        </g>
      </g>
    </g>
  </g>
  <g id="Group_18865" data-name="Group 18865">
    <path id="Path_26137" data-name="Path 26137" d="M323.193,100.043a57.035,57.035,0,0,0-.1-8.1c-.976-11.535-5.791-22.885-14.164-30.877-13.116-12.517-34.675-15.075-50.356-5.975-10.137,5.883-17.41,15.706-27.1,22.3-17.12,11.652-45.374,14.093-50.482,37.533-1.846,8.466-2.336,17.48.524,25.66,4.1,11.731,14.68,20.293,26.245,24.84,40.414,15.892,89.492.392,108.636-39.82A69.194,69.194,0,0,0,323.193,100.043Z" transform="translate(86.766 9.842)" fill="#fff"/>
    <g id="Group_18849" data-name="Group 18849" transform="translate(276.527 87.457)">
      <g id="Group_18850" data-name="Group 18850" transform="translate(0 0)">
        <g id="Group_18821" data-name="Group 18821" transform="translate(0 0)">
          <g id="Group_18820" data-name="Group 18820" transform="translate(0 0)">
            <g id="Group_18816" data-name="Group 18816" transform="translate(20.057 31.51)">
              <path id="Path_26071" data-name="Path 26071" d="M2089.407,1910.877a1.727,1.727,0,0,0,.492-.07,1.676,1.676,0,0,0,1.111-2.094l-2.438-7.932a1.676,1.676,0,0,0-1.6-1.186H2060.34a1.676,1.676,0,0,0,0,3.352h25.394l2.073,6.75A1.673,1.673,0,0,0,2089.407,1910.877Z" transform="translate(-2058.664 -1899.596)" fill="url(#linear-gradient)"/>
            </g>
            <path id="Path_26072" data-name="Path 26072" d="M2364.038,2018.772l-20.522-.6-11.211-32.041h20.95Z" transform="translate(-2289.688 -1947.49)" fill="#00ccc1"/>
            <path id="Path_26073" data-name="Path 26073" d="M2853.5,2412.525c0,10.65-6.27,15.978-14,15.978s-14.005-5.328-14.005-15.978h28.01Z" transform="translate(-2742.215 -2338.729)" fill="#00ccc1"/>
            <path id="Path_26074" data-name="Path 26074" d="M3009.375,2412.525c0,10.65-6.27,15.978-14,15.978l10.2-.263c7.737,0,13.23-5.065,13.23-15.715Z" transform="translate(-2898.091 -2338.729)" fill="url(#linear-gradient-2)"/>
            <path id="Path_26075" data-name="Path 26075" d="M1992.5,2412.441c0,10.656,6.267,15.982,14.007,15.982,7.725,0,14.007-5.326,14.007-15.982Z" transform="translate(-1977.897 -2338.652)" fill="#00ccc1"/>
            <path id="Path_26076" data-name="Path 26076" d="M2053.481,2412.848c0,6.97,3.269,10.954,8.979,10.954s8.98-3.984,8.98-10.954a3.221,3.221,0,0,0-.017-.4H2053.5A3.175,3.175,0,0,0,2053.481,2412.848Z" transform="translate(-2033.852 -2338.655)" fill="#e8e7ef" opacity="0.6"/>
            <path id="Path_26077" data-name="Path 26077" d="M2886.437,2412.848c0,6.97,3.267,10.954,8.981,10.954,5.7,0,8.979-3.984,8.979-10.954a3.221,3.221,0,0,0-.017-.4h-17.925a2.965,2.965,0,0,0-.018.4Z" transform="translate(-2798.138 -2338.655)" fill="#e8e7ef" opacity="0.6"/>
            <path id="Path_26078" data-name="Path 26078" d="M2176.371,2412.525c0,10.65-6.271,15.978-14,15.978l10.2-.263c7.735,0,13.228-5.065,13.228-15.715Z" transform="translate(-2133.76 -2338.729)" fill="url(#linear-gradient-3)"/>
            <g id="Group_18817" data-name="Group 18817" transform="translate(99.943 11.443)">
              <path id="Path_26079" data-name="Path 26079" d="M3029.353,1659.541h7.99a1.675,1.675,0,1,0,0-3.349h-7.99a1.675,1.675,0,1,0,0,3.349Z" transform="translate(-3027.677 -1656.192)" fill="url(#linear-gradient-4)"/>
            </g>
            <path id="Path_26080" data-name="Path 26080" d="M2925.052,1633.729v-2.844a3.139,3.139,0,0,0-3.351-2.844h-4.9a3.139,3.139,0,0,0-3.35,2.844v2.844Z" transform="translate(-2822.928 -1618.919)" fill="url(#linear-gradient-5)"/>
            <g id="Group_18818" data-name="Group 18818" transform="translate(80.984 11.443)">
              <path id="Path_26081" data-name="Path 26081" d="M2799.384,1659.541h7.989a1.675,1.675,0,0,0,0-3.349h-7.989a1.675,1.675,0,1,0,0,3.349Z" transform="translate(-2797.708 -1656.192)" fill="url(#linear-gradient-6)"/>
            </g>
            <path id="Path_26082" data-name="Path 26082" d="M2538.287,2061.751s-6.176.6-10.835-.962-5.993-20.193-4.217-25.074h-13.253c-1.777,4.881-.446,23.52,4.213,25.074s10.838.962,10.838.962Z" transform="translate(-2452.024 -1992.984)" fill="#0af1e5"/>
            <path id="Path_26083" data-name="Path 26083" d="M2769.49,1737.369s8.872-44.105,0-53.186c-2.867-2.938-9.547-7.476-16.226-7.476s-13.362,4.537-16.23,7.476c-5.294,5.423-4.27,21.574-2.582,33.722,1.139,8.207,2.582,19.463,2.582,19.463h32.456Z" transform="translate(-2657.434 -1663.573)" fill="#00ccc1"/>
            <path id="Path_26084" data-name="Path 26084" d="M2913.455,1823.165c0,4.536,3.292,8.213,7.352,8.213s7.352-3.677,7.352-8.213-3.292-8.209-7.352-8.209S2913.455,1818.633,2913.455,1823.165Z" transform="translate(-2822.928 -1790.424)" fill="url(#linear-gradient-7)"/>
            <path id="Path_26085" data-name="Path 26085" d="M2402.442,1934.43H2423.7a3.363,3.363,0,0,0,3.351-3.353v-2.4a3.362,3.362,0,0,0-3.351-3.35h-21.261Z" transform="translate(-2354.043 -1891.699)" fill="url(#linear-gradient-8)"/>
            <path id="Path_26086" data-name="Path 26086" d="M2267.787,1931.077a3.362,3.362,0,0,1-3.351,3.353h-17.91a3.362,3.362,0,0,1-3.351-3.352v-2.4a3.361,3.361,0,0,1,3.351-3.35h17.91a3.36,3.36,0,0,1,3.351,3.35Z" transform="translate(-2207.907 -1891.698)" fill="url(#linear-gradient-9)"/>
            <g id="Group_18819" data-name="Group 18819" transform="translate(0 31.51)">
              <path id="Path_26087" data-name="Path 26087" d="M1846.117,1910.877a1.724,1.724,0,0,0,.492-.07,1.677,1.677,0,0,0,1.111-2.094l-2.438-7.932a1.677,1.677,0,0,0-1.6-1.186h-26.631a1.676,1.676,0,0,0,0,3.352h25.393l2.072,6.75a1.674,1.674,0,0,0,1.6,1.18Z" transform="translate(-1815.375 -1899.596)" fill="url(#linear-gradient-10)"/>
            </g>
            <path id="Path_26088" data-name="Path 26088" d="M2073.6,1548.9h26.607a3.36,3.36,0,0,0,3.351-3.349v-24.808a3.362,3.362,0,0,0-3.351-3.352H2073.6v31.51Z" transform="translate(-2052.314 -1517.387)" fill="#3065e9"/>
            <path id="Path_26089" data-name="Path 26089" d="M1896.273,1545.547a3.36,3.36,0,0,1-3.351,3.349h-23.259a3.359,3.359,0,0,1-3.35-3.349v-24.808a3.361,3.361,0,0,1,3.35-3.352h23.259a3.361,3.361,0,0,1,3.351,3.352Z" transform="translate(-1862.114 -1517.387)" fill="#4677f1"/>
            <path id="Path_26090" data-name="Path 26090" d="M2797.708,2186.508c0-13.541,9.461-20.307,21.138-20.307s21.138,6.767,21.138,20.307Z" transform="translate(-2716.724 -2112.712)" fill="#0af1e5"/>
            <path id="Path_26091" data-name="Path 26091" d="M2797.708,2206.571c0-10.154,6.267-18.5,14.007-18.5s14.006,6.166,14.006,18.5Z" transform="translate(-2716.724 -2132.776)" fill="#00ccc1"/>
            <path id="Path_26092" data-name="Path 26092" d="M1834.819,2047c0-21.9,18.966-32.842,35.062-32.842S1893.1,2025.1,1893.1,2047Z" transform="translate(-1833.216 -1973.202)" fill="#00ccc1"/>
            <rect id="Rectangle_1306" data-name="Rectangle 1306" width="39.277" height="5.029" transform="translate(40.324 68.767)" fill="#00ccc1"/>
            <path id="Path_26093" data-name="Path 26093" d="M1834.819,2079.443c0-16.419,14.039-29.927,24.708-29.927s19.305,9.97,19.305,29.927Z" transform="translate(-1833.216 -2005.647)" fill="#0af1e5"/>
            <rect id="Rectangle_1307" data-name="Rectangle 1307" width="12.028" height="4.81" transform="translate(13.166 0)" fill="#e8e7ef" opacity="0.6"/>
            <rect id="Rectangle_1308" data-name="Rectangle 1308" width="7.347" height="4.81" transform="translate(37.59 0)" fill="#e8e7ef" opacity="0.6"/>
          </g>
        </g>
        <g id="Group_18842" data-name="Group 18842" transform="translate(13.029 11.08)">
          <g id="Group_18810" data-name="Group 18810" transform="translate(0 0)">
            <g id="Group_18807" data-name="Group 18807" transform="translate(0 0)">
              <ellipse id="Ellipse_308" data-name="Ellipse 308" cx="6.472" cy="6.472" rx="6.472" ry="6.472" fill="#fff"/>
              <g id="Group_18806" data-name="Group 18806" transform="translate(2.567 2.567)">
                <path id="Path_26063" data-name="Path 26063" d="M2770.094,1200.834l-1.44,1.441-1.467-1.467v-1.858a.391.391,0,0,1,.391-.391h2.126a.39.39,0,0,1,.39.391Z" transform="translate(-2764.736 -1198.559)" fill="#00ccc1" fill-rule="evenodd"/>
                <path id="Path_26064" data-name="Path 26064" d="M2733.495,1237.434l-1.441,1.441h-1.884a.391.391,0,0,1-.391-.391v-2.126a.391.391,0,0,1,.391-.391h1.857Z" transform="translate(-2729.78 -1233.516)" fill="#00ccc1" fill-rule="evenodd"/>
                <path id="Path_26065" data-name="Path 26065" d="M2770.094,1262.9v1.858a.39.39,0,0,1-.39.391h-2.126a.391.391,0,0,1-.391-.391v-1.831l1.467-1.467Z" transform="translate(-2764.736 -1257.336)" fill="#00ccc1" fill-rule="evenodd"/>
                <path id="Path_26066" data-name="Path 26066" d="M2796.355,1236.358v2.126a.391.391,0,0,1-.391.391h-1.857l-1.441-1.441,1.467-1.467h1.831A.391.391,0,0,1,2796.355,1236.358Z" transform="translate(-2788.545 -1233.516)" fill="#00ccc1" fill-rule="evenodd"/>
              </g>
            </g>
          </g>
        </g>
      </g>
    </g>
    <g id="Group_18869" data-name="Group 18869" transform="translate(328.885 59.499)">
      <ellipse id="Ellipse_299-2" data-name="Ellipse 299" cx="13.172" cy="13.172" rx="13.172" ry="13.172" transform="translate(0 26.004) rotate(-80.783)" fill="#00ccc1"/>
      <g id="Group_9978-2" data-name="Group 9978" transform="translate(2.561 0.609)">
        <path id="Path_23060-2" data-name="Path 23060" d="M489.143,50.772a12.551,12.551,0,1,0,12.551,12.551A12.565,12.565,0,0,0,489.143,50.772Z" transform="translate(-476.592 -50.772)" fill="none" stroke="#000" stroke-width="1"/>
      </g>
      <g id="tick-2" data-name="tick" transform="translate(9.443 9.515)">
        <g id="Group_18802-2" data-name="Group 18802" transform="translate(0)">
          <path id="Path_26060-2" data-name="Path 26060" d="M13.206,68.194a.67.67,0,0,0-.948,0L4.229,76.222,1.143,73.136a.67.67,0,0,0-.948.948l3.56,3.56a.67.67,0,0,0,.948,0l8.5-8.5A.67.67,0,0,0,13.206,68.194Z" transform="translate(0 -67.997)" fill="#fff"/>
        </g>
      </g>
    </g>
  </g>
  <g id="Group_18863" data-name="Group 18863" transform="translate(9.36)">
    <path id="Path_26138" data-name="Path 26138" d="M47.075,336.741c-10.96-4.341-16.536-19.749-13.9-30.689,2.57-10.684,11.334-18.681,20.257-25.094s18.69-12.191,25.073-21.134c14.478-20.285,15.152-60.444,49.458-58.907,6.125.274,11.988,2.676,17.235,5.847a61.423,61.423,0,0,1,25.017,29.408c2.615,6.5,2.433,13.22,3.451,20.026,1.152,7.7,3.3,15.53,3.518,23.324a81.355,81.355,0,0,1-13.833,47.893c-4.218,6.3-9.269,12.487-17.276,13.444-4.276.511-8.59-.15-12.875-.567-5.637-.548-11.307-.673-16.969-.8-13.334-.291-26.674-.582-40.006-.2-8.487.241-17.115.739-25.347-1.343A30.832,30.832,0,0,1,47.075,336.741Z" transform="translate(417.474 -34.874)" fill="#fff"/>
    <g id="Group_18855" data-name="Group 18855" transform="translate(-788.454 -639.961)">
      <g id="Group_18851" data-name="Group 18851" transform="translate(1275.454 850.961)">
        <path id="Path_26139" data-name="Path 26139" d="M1456.369,857.294v82.332a6.352,6.352,0,0,1-6.333,6.333H1405.7a6.352,6.352,0,0,1-6.333-6.333V857.294a6.352,6.352,0,0,1,6.333-6.333h44.333a6.352,6.352,0,0,1,6.333,6.333Z" transform="translate(-1392.795 -850.961)" fill="#fff" stroke="#00c5ba" stroke-width="0.5"/>
        <path id="Path_26140" data-name="Path 26140" d="M1456.369,2462.374v3.167a6.352,6.352,0,0,1-6.333,6.333H1405.7a6.358,6.358,0,0,1-5.771-3.729,6.256,6.256,0,0,1-.562-2.6v-3.167Z" transform="translate(-1392.903 -2376.875)" fill="#00c5ba"/>
        <path id="Path_26141" data-name="Path 26141" d="M1456.369,857.294v3.167h-57v-3.167a6.352,6.352,0,0,1,6.333-6.333h44.333a6.352,6.352,0,0,1,6.333,6.333Z" transform="translate(-1392.795 -850.961)" fill="#00c5ba"/>
        <path id="Path_26142" data-name="Path 26142" d="M1789.84,927.673h7.65a1.043,1.043,0,1,0,0-2.087h-7.65a1.043,1.043,0,1,0,0,2.087Z" transform="translate(-1761.56 -922.627)" fill="#fff" fill-rule="evenodd"/>
        <path id="Path_26143" data-name="Path 26143" d="M2025.787,927.673h1.739a1.043,1.043,0,0,0,0-2.087h-1.739a1.043,1.043,0,0,0,0,2.087Z" transform="translate(-1984.988 -922.627)" fill="#fff" fill-rule="evenodd"/>
        <path id="Path_26144" data-name="Path 26144" d="M1858.209,2535h6.333a1.043,1.043,0,1,0,0-2.086h-6.333a1.043,1.043,0,0,0,0,2.086Z" transform="translate(-1826.301 -2443.674)" fill-rule="evenodd" fill="url(#linear-gradient-11)"/>
        <g id="Group_18859" data-name="Group 18859" transform="translate(0 -1)">
          <g transform="matrix(1, 0, 0, 1, -496.36, -210)" filter="url(#Path_26145)">
            <path id="Path_26145-2" data-name="Path 26145" d="M1293.413,1031.2c-1.53,7.034-3.008,12.168-3.908,19.314a6.2,6.2,0,0,1-6.327,5.337h-2.084c-3.327,0-6.055-2.386-5.586-5.329,1.543-7.3,4-12.31,6.517-19.321l11.389,0Z" transform="translate(-779.09 -811.64)" fill="#0cbce2"/>
          </g>
          <g transform="matrix(1, 0, 0, 1, -496.36, -210)" filter="url(#Path_26146)">
            <path id="Path_26146-2" data-name="Path 26146" d="M1555.2,1031.17c-.527,7.045-1.011,12.248-1.3,19.307-.092,2.959-2.813,5.346-6.139,5.346h-2.084c-3.327,0-6.052-2.386-5.771-5.337.9-7.147,2.378-12.281,3.908-19.314l11.391,0Z" transform="translate(-1029.49 -811.61)" fill="#fef2f4"/>
          </g>
          <g transform="matrix(1, 0, 0, 1, -496.36, -210)" filter="url(#Path_26147)">
            <path id="Path_26147-2" data-name="Path 26147" d="M1816.664,1031.129c.5,7.045,1,12.245,1.3,19.3.1,2.966-2.626,5.353-5.953,5.353h-2.083c-3.327,0-6.051-2.386-5.958-5.345.293-7.06.778-12.262,1.3-19.308l11.39,0Z" transform="translate(-1279.56 -811.57)" fill="#0cbce2"/>
          </g>
          <g transform="matrix(1, 0, 0, 1, -496.36, -210)" filter="url(#Path_26148)">
            <path id="Path_26148-2" data-name="Path 26148" d="M2054.658,1031.1c1.54,7.025,3,12.155,3.905,19.3.285,2.974-2.44,5.361-5.767,5.361h-2.084c-3.327,0-6.048-2.387-6.144-5.353-.3-7.057-.8-12.257-1.3-19.3Z" transform="translate(-1506.17 -811.54)" fill="#fef2f4"/>
          </g>
          <g transform="matrix(1, 0, 0, 1, -496.36, -210)" filter="url(#Path_26149)">
            <path id="Path_26149-2" data-name="Path 26149" d="M2269.325,1031.058c2.562,6.991,4.984,11.99,6.512,19.289.474,2.981-2.253,5.37-5.581,5.37h-2.084a6.206,6.206,0,0,1-6.332-5.362c-.9-7.14-2.366-12.27-3.905-19.3l11.39,0Z" transform="translate(-1709.45 -811.5)" fill="#0cbce2"/>
          </g>
        </g>
        <g id="Group_18858" data-name="Group 18858" transform="translate(0 24)">
          <g id="Path_26162" data-name="Path 26162" transform="translate(11.467 13.586)" fill="#fff">
            <path d="M 47 27.57015991210938 L 1 27.57015991210938 C 0.5864499807357788 27.57015991210938 0.25 27.20231056213379 0.25 26.75015068054199 L 0.25 1.07000994682312 C 0.25 0.6178499460220337 0.5864499807357788 0.2499999552965164 1 0.2499999552965164 L 47 0.2499999552965164 C 47.41355133056641 0.2499999552965164 47.75 0.6178499460220337 47.75 1.07000994682312 L 47.75 26.75015068054199 C 47.75 27.20231056213379 47.41355133056641 27.57015991210938 47 27.57015991210938 Z" stroke="none"/>
            <path d="M 1 0.5 C 0.7243003845214844 0.5 0.5 0.7556991577148438 0.5 1.069999694824219 L 0.5 26.75015068054199 C 0.5 27.06444931030273 0.7243003845214844 27.32015991210938 1 27.32015991210938 L 47 27.32015991210938 C 47.27569961547852 27.32015991210938 47.5 27.06444931030273 47.5 26.75015068054199 L 47.5 1.069999694824219 C 47.5 0.7556991577148438 47.27569961547852 0.5 47 0.5 L 1 0.5 M 1 0 L 47 0 C 47.55228042602539 0 48 0.4790592193603516 48 1.069999694824219 L 48 26.75015068054199 C 48 27.34110069274902 47.55228042602539 27.82015991210938 47 27.82015991210938 L 1 27.82015991210938 C 0.4477081298828125 27.82015991210938 0 27.34110069274902 0 26.75015068054199 L 0 1.069999694824219 C 0 0.4790592193603516 0.4477081298828125 0 1 0 Z" stroke="none" fill="#eaeaea"/>
          </g>
          <g id="Group_18860" data-name="Group 18860" transform="translate(0 6)">
            <g id="Rectangle_1322" data-name="Rectangle 1322" transform="translate(16.467 40.586)" fill="#fff" stroke="#eaeaea" stroke-width="0.5">
              <rect width="9" height="8" rx="1" stroke="none"/>
              <rect x="0.25" y="0.25" width="8.5" height="7.5" rx="0.75" fill="none"/>
            </g>
            <g id="Rectangle_1323" data-name="Rectangle 1323" transform="translate(31.467 40.586)" fill="#fff" stroke="#eaeaea" stroke-width="0.5">
              <rect width="9" height="8" rx="1" stroke="none"/>
              <rect x="0.25" y="0.25" width="8.5" height="7.5" rx="0.75" fill="none"/>
            </g>
            <g id="Rectangle_1324" data-name="Rectangle 1324" transform="translate(46.467 40.586)" fill="#fff" stroke="#eaeaea" stroke-width="0.5">
              <rect width="9" height="8" rx="1" stroke="none"/>
              <rect x="0.25" y="0.25" width="8.5" height="7.5" rx="0.75" fill="none"/>
            </g>
          </g>
        </g>
      </g>
      <g id="Group_18854" data-name="Group 18854" transform="translate(1305.922 894.547)">
        <path id="Path_26150" data-name="Path 26150" d="M2257.415,1622.967a.366.366,0,0,0-.366-.366h-6.636a.366.366,0,0,0-.366.366v2.995a.366.366,0,0,0,.366.366h6.636a.366.366,0,0,0,.366-.366Z" transform="translate(-2248.258 -1622.601)" fill-rule="evenodd" fill="url(#linear-gradient-12)"/>
        <path id="Path_26151" data-name="Path 26151" d="M2330.471,1622.967a.366.366,0,0,0-.366-.366h-5.413a.367.367,0,0,0-.366.366v2.995a.367.367,0,0,0,.366.366h5.413a.366.366,0,0,0,.366-.366v-2.995Z" transform="translate(-2321.314 -1622.601)" fill="#536be1" fill-rule="evenodd"/>
        <path id="Path_26152" data-name="Path 26152" d="M2329.814,1622.967a.366.366,0,0,0-.366-.366h-4.755a.367.367,0,0,0-.366.366v2.995a.367.367,0,0,0,.366.366h4.755a.366.366,0,0,0,.366-.366v-2.995Z" transform="translate(-2321.314 -1622.601)" fill-rule="evenodd" fill="url(#linear-gradient-13)"/>
        <path id="Path_26153" data-name="Path 26153" d="M2143.886,1848.774h6.3l1.879,2.471a2.159,2.159,0,0,1,.441,1.308v2.131c0,6.073-.114,6.634-.316,6.836a1.079,1.079,0,0,1-.763.316h-8.785a1.079,1.079,0,0,1-1.08-1.079v-8.2a2.161,2.161,0,0,1,.441-1.308l1.88-2.471Z" transform="translate(-2141.566 -1845.047)" fill-rule="evenodd" fill="url(#linear-gradient-14)"/>
        <path id="Path_26154" data-name="Path 26154" d="M2263.589,1848.774h4.736l1.412,2.471a2.657,2.657,0,0,1,.331,1.308v2.131c0,6.073-.085,6.634-.238,6.836a.724.724,0,0,1-.573.316h-6.6a.726.726,0,0,1-.573-.316,1.282,1.282,0,0,1-.238-.763v-8.2a2.654,2.654,0,0,1,.331-1.308l1.412-2.471Z" transform="translate(-2259.864 -1845.047)" fill-rule="evenodd" fill="url(#linear-gradient-15)"/>
        <path id="Path_26157" data-name="Path 26157" d="M0,0H10.944V6.21H0Z" transform="translate(0 8.275)" fill="#fff"/>
        <g id="Group_18852" data-name="Group 18852" transform="translate(8.461 3.727)">
          <path id="Path_26155" data-name="Path 26155" d="M2655.183,1848.774l1.879,2.471a2.159,2.159,0,0,1,.441,1.308v2.131c0,6.073-.114,6.634-.316,6.836a1.079,1.079,0,0,1-.763.316h-.471a.726.726,0,0,0,.573-.316c.152-.2.238-.763.238-6.836v-2.131a2.654,2.654,0,0,0-.331-1.308l-1.412-2.471Z" transform="translate(-2655.02 -1848.774)" fill="#3f3696" fill-rule="evenodd" opacity="0.16"/>
        </g>
        <g id="Group_18853" data-name="Group 18853" transform="translate(5.472 3.727)">
          <path id="Path_26156" data-name="Path 26156" d="M2473.641,1848.774l3.871.947-.713-.947Z" transform="translate(-2473.641 -1848.774)" fill="#3f3696" fill-rule="evenodd" opacity="0.16"/>
        </g>
        <g id="Group_18856" data-name="Group 18856" transform="translate(4.025 9.933)">
          <path id="Path_26158" data-name="Path 26158" d="M2430.541,2195.376l-.534.534-.543-.543v-.689a.145.145,0,0,1,.145-.145h.788a.145.145,0,0,1,.145.145Z" transform="translate(-2428.555 -2194.533)" fill="#00ccc1" fill-rule="evenodd"/>
          <path id="Path_26159" data-name="Path 26159" d="M2356.362,2269.555l-.534.534h-.7a.145.145,0,0,1-.145-.145v-.788a.145.145,0,0,1,.145-.145h.688Z" transform="translate(-2354.985 -2268.103)" fill="#00ccc1" fill-rule="evenodd"/>
          <path id="Path_26160" data-name="Path 26160" d="M2430.541,2320.293v.688a.145.145,0,0,1-.145.145h-.788a.145.145,0,0,1-.145-.145v-.678l.543-.544Z" transform="translate(-2428.555 -2318.232)" fill="#00ccc1" fill-rule="evenodd"/>
          <path id="Path_26161" data-name="Path 26161" d="M2481.556,2269.156v.788a.145.145,0,0,1-.145.145h-.688l-.534-.534.544-.544h.678A.145.145,0,0,1,2481.556,2269.156Z" transform="translate(-2478.662 -2268.103)" fill="#00ccc1" fill-rule="evenodd"/>
        </g>
      </g>
      <g id="Group_18870" data-name="Group 18870" transform="translate(1321.979 843.359)">
        <ellipse id="Ellipse_299-3" data-name="Ellipse 299" cx="13.172" cy="13.172" rx="13.172" ry="13.172" transform="translate(0 26.004) rotate(-80.783)" fill="#00ccc1"/>
        <g id="Group_9978-3" data-name="Group 9978" transform="translate(2.561 0.609)">
          <path id="Path_23060-3" data-name="Path 23060" d="M489.143,50.772a12.551,12.551,0,1,0,12.551,12.551A12.565,12.565,0,0,0,489.143,50.772Z" transform="translate(-476.592 -50.772)" fill="none" stroke="#000" stroke-width="1"/>
        </g>
        <g id="tick-3" data-name="tick" transform="translate(9.443 9.515)">
          <g id="Group_18802-3" data-name="Group 18802" transform="translate(0)">
            <path id="Path_26060-3" data-name="Path 26060" d="M13.206,68.194a.67.67,0,0,0-.948,0L4.229,76.222,1.143,73.136a.67.67,0,0,0-.948.948l3.56,3.56a.67.67,0,0,0,.948,0l8.5-8.5A.67.67,0,0,0,13.206,68.194Z" transform="translate(0 -67.997)" fill="#fff"/>
          </g>
        </g>
      </g>
    </g>
  </g>
  <g id="Group_18867" data-name="Group 18867" transform="translate(-10.86 25.346) rotate(-3)">
    <g id="settings" transform="translate(349.211 316.261)">
      <g id="Group_9233" data-name="Group 9233" transform="translate(2.355 2.404)">
        <g id="Group_9232" data-name="Group 9232">
          <path id="Path_21796" data-name="Path 21796" d="M1.636.153a1.43,1.43,0,0,0-.574.119A1.479,1.479,0,0,0,.592.6a1.528,1.528,0,0,0-.317.483,1.563,1.563,0,0,0,0,1.183,1.53,1.53,0,0,0,.317.484,1.481,1.481,0,0,0,.469.326,1.436,1.436,0,0,0,1.148,0,1.479,1.479,0,0,0,.469-.326,1.528,1.528,0,0,0,.316-.483,1.563,1.563,0,0,0,0-1.182A1.53,1.53,0,0,0,2.678.6,1.481,1.481,0,0,0,2.209.273,1.431,1.431,0,0,0,1.636.153Zm0,2.606a1.022,1.022,0,0,1-.41-.086A1.058,1.058,0,0,1,.89,2.441,1.093,1.093,0,0,1,.664,2.1a1.116,1.116,0,0,1,0-.845A1.092,1.092,0,0,1,.89.905,1.056,1.056,0,0,1,1.226.672a1.026,1.026,0,0,1,.82,0,1.058,1.058,0,0,1,.335.233,1.093,1.093,0,0,1,.226.345,1.116,1.116,0,0,1,0,.844,1.092,1.092,0,0,1-.226.345,1.056,1.056,0,0,1-.335.233A1.022,1.022,0,0,1,1.636,2.759Z" fill="#00829e"/>
        </g>
      </g>
      <g id="Group_9235" data-name="Group 9235">
        <g id="Group_9234" data-name="Group 9234">
          <path id="Path_21797" data-name="Path 21797" d="M7.425,3.434,6.6,3.225q-.019-.06-.04-.12t-.045-.118q-.024-.058-.05-.116t-.055-.113l.112-.192.126-.217.1-.177L6.8,2.1a.22.22,0,0,0,.026-.068A.224.224,0,0,0,6.8,1.893a.217.217,0,0,0-.041-.059l-.6-.615a.211.211,0,0,0-.057-.042.205.205,0,0,0-.2.009l-.073.045-.171.106-.209.129-.187.115q-.054-.03-.109-.057t-.112-.051q-.056-.024-.114-.046L4.82,1.386l-.058-.243L4.695.864,4.64.633l-.023-.1A.221.221,0,0,0,4.589.47.216.216,0,0,0,4.542.417a.21.21,0,0,0-.06-.034.205.205,0,0,0-.07-.012H3.569A.2.2,0,0,0,3.5.382a.209.209,0,0,0-.06.034.215.215,0,0,0-.047.052.22.22,0,0,0-.028.067L3.314.741,3.259.975,3.2,1.2l-.044.184q-.062.02-.123.043t-.121.049q-.06.026-.118.055t-.116.061l-.075-.047L2.52,1.493l-.093-.058-.095-.059-.316-.2a.208.208,0,0,0-.066-.027.206.206,0,0,0-.135.017.211.211,0,0,0-.058.042l-.6.614a.217.217,0,0,0-.041.059.223.223,0,0,0,.009.206l.043.074.1.178.133.229.132.228q-.025.051-.048.1t-.044.1q-.021.052-.04.106t-.035.107l-.247.063-.269.068-.218.055-.092.023a.208.208,0,0,0-.065.029.214.214,0,0,0-.051.048A.219.219,0,0,0,.4,3.568a.223.223,0,0,0-.012.072v.87A.223.223,0,0,0,.4,4.582a.22.22,0,0,0,.033.062.214.214,0,0,0,.051.048.208.208,0,0,0,.065.029l.092.023L.857,4.8l.269.068.249.063q.019.061.04.122t.046.12q.024.059.051.118t.057.115L1.2,6.039a.221.221,0,0,0-.026.068.224.224,0,0,0,.017.139.217.217,0,0,0,.041.059l.6.615a.211.211,0,0,0,.058.042.206.206,0,0,0,.2-.009l.07-.043.164-.1.2-.124.18-.111q.055.03.111.058t.113.052q.057.025.116.047t.118.041l.2.849a.22.22,0,0,0,.028.067.215.215,0,0,0,.047.052.209.209,0,0,0,.06.034.205.205,0,0,0,.07.012h.843a.2.2,0,0,0,.07-.012.209.209,0,0,0,.06-.034.215.215,0,0,0,.047-.052.22.22,0,0,0,.028-.067l.2-.849q.061-.02.12-.043t.118-.048q.058-.026.116-.054t.113-.06l.183.113.205.127.167.1.069.043a.205.205,0,0,0,.2.009.21.21,0,0,0,.057-.042l.6-.614A.217.217,0,0,0,6.8,6.244.223.223,0,0,0,6.8,6.038l-.042-.072-.1-.174-.124-.214-.111-.19q.028-.055.053-.111t.049-.113q.023-.057.044-.115T6.6,4.932l.233-.059L7.1,4.8l.224-.057.1-.024a.207.207,0,0,0,.065-.029.213.213,0,0,0,.051-.048.219.219,0,0,0,.033-.062.223.223,0,0,0,.012-.072V3.645a.223.223,0,0,0-.012-.072.219.219,0,0,0-.033-.062.213.213,0,0,0-.051-.048A.207.207,0,0,0,7.425,3.434Zm-.261.908L6.953,4.4l-.233.059-.2.052L6.4,4.537l-.016,0a.207.207,0,0,0-.052.022.211.211,0,0,0-.044.034.216.216,0,0,0-.034.045A.221.221,0,0,0,6.23,4.7q-.02.077-.045.153T6.13,5q-.03.074-.064.145t-.074.14a.221.221,0,0,0-.022.054.224.224,0,0,0,0,.114.22.22,0,0,0,.022.054l.043.073.093.159.114.2.107.184-.363.374-.181-.112L5.614,6.26l-.153-.094L5.4,6.126A.207.207,0,0,0,5.345,6.1a.2.2,0,0,0-.112,0,.207.207,0,0,0-.053.024q-.068.043-.14.08t-.145.07q-.074.032-.15.059t-.154.049a.207.207,0,0,0-.051.022.212.212,0,0,0-.043.034.217.217,0,0,0-.033.045.221.221,0,0,0-.021.053l-.009.033-.007.03-.005.021,0,.009-.171.718H3.734l-.152-.638-.041-.169a.221.221,0,0,0-.021-.054.217.217,0,0,0-.033-.046.212.212,0,0,0-.044-.035.207.207,0,0,0-.052-.022q-.077-.021-.152-.047T3.091,6.28q-.073-.032-.144-.068t-.139-.079a.207.207,0,0,0-.052-.023.205.205,0,0,0-.111,0,.208.208,0,0,0-.052.023l-.082.051-.151.093-.18.111-.168.1-.364-.375.347-.6a.221.221,0,0,0,.023-.054.224.224,0,0,0,0-.115A.221.221,0,0,0,2,5.3q-.041-.071-.077-.144T1.851,5q-.031-.076-.057-.153t-.046-.157a.221.221,0,0,0-.022-.054A.217.217,0,0,0,1.693,4.6a.212.212,0,0,0-.044-.035A.208.208,0,0,0,1.6,4.539L1.441,4.5l-.209-.053L1.008,4.39l-.2-.05V3.811l.2-.05L1.235,3.7l.209-.053L1.6,3.612a.207.207,0,0,0,.052-.022.212.212,0,0,0,.044-.034.217.217,0,0,0,.034-.045.221.221,0,0,0,.022-.054q.019-.073.042-.144t.051-.141q.028-.069.059-.137T1.968,2.9a.221.221,0,0,0,.021-.053.224.224,0,0,0,0-.112.221.221,0,0,0-.022-.053l-.089-.153-.1-.179-.1-.18-.091-.157.364-.374.175.108.159.1.146.09L2.527,2l.044.027a.208.208,0,0,0,.053.023.206.206,0,0,0,.165-.024q.07-.044.143-.082t.148-.071q.075-.033.153-.06t.157-.049a.207.207,0,0,0,.052-.022.211.211,0,0,0,.044-.035.216.216,0,0,0,.033-.046.221.221,0,0,0,.021-.054l.023-.094L3.614,1.3l.062-.261L3.734.8h.513l.059.247.063.262.05.209.021.088a.221.221,0,0,0,.021.054.217.217,0,0,0,.033.046.212.212,0,0,0,.044.035.208.208,0,0,0,.052.022q.076.021.15.047t.146.057q.072.031.142.068t.138.078a.207.207,0,0,0,.052.023.205.205,0,0,0,.162-.023l.091-.056.158-.1.185-.114.171-.105.363.375-.109.187-.116.2-.094.162-.043.073a.22.22,0,0,0-.022.054.224.224,0,0,0,0,.114.221.221,0,0,0,.022.054q.04.07.076.142t.066.147q.03.075.056.151t.046.155a.221.221,0,0,0,.021.053.217.217,0,0,0,.033.045.212.212,0,0,0,.043.034.207.207,0,0,0,.051.022l.032.009.029.008.021.005.008,0,.7.177Z" fill="#00829e"/>
        </g>
      </g>
    </g>
    <g id="Group_18866" data-name="Group 18866" transform="translate(346.692 325.046)">
      <path id="Rectangle_1325" data-name="Rectangle 1325" d="M2.942,1.175l9.3-.321a2.629,2.629,0,0,1,1.04.174A2.674,2.674,0,0,1,14.743,2.4a2.682,2.682,0,0,1-1.29,3.553,2.63,2.63,0,0,1-1.025.247l-9.3.329a2.646,2.646,0,0,1-1.909-.718,2.686,2.686,0,0,1,.695-4.391A2.641,2.641,0,0,1,2.942,1.175Z" fill="#08a0c0"/>
      <path id="Admin" d="M1.626,2.784.814,4.978q-.021.065-.067.1t-.105.04q-.087,0-.132-.045T.458,4.951q0-.028.01-.065l.916-2.495q.025-.069.077-.107t.115-.036q.059,0,.112.032t.078.1L2.838,4.766q.017.039.019.08,0,.088-.052.144t-.126.059q-.059,0-.11-.034t-.076-.1L1.523,2.8ZM.952,4.4l.164-.391,1.115-.039.08.382ZM4.8,1.992q.087,0,.144.051T5,2.189l.089,2.553q0,.088-.05.148a.189.189,0,0,1-.029.026.176.176,0,0,1-.033.019.189.189,0,0,1-.037.012.228.228,0,0,1-.041.005.212.212,0,0,1-.04,0,.185.185,0,0,1-.037-.01.183.183,0,0,1-.034-.017A.2.2,0,0,1,4.76,4.9Q4.7,4.845,4.7,4.757l-.01-.288H4.77q0,.072-.051.164t-.149.18q-.1.088-.227.146t-.285.064q-.272.01-.493-.125t-.356-.376q-.135-.242-.146-.562t.106-.571q.117-.251.327-.4t.473-.159q.165-.006.311.045t.255.135q.109.084.172.18t.065.184l-.122.016L4.609,2.2q0-.088.052-.148T4.8,1.992ZM4.087,4.654q.189-.007.325-.108t.209-.268q.073-.167.066-.375T4.6,3.534q-.084-.161-.229-.252T4.037,3.2q-.181.006-.317.107t-.211.268q-.075.167-.068.375t.094.369q.086.161.229.252T4.087,4.654Zm2.525-1.9q.291-.01.453.13t.222.387l-.064-.018.025-.065q.047-.106.148-.215t.243-.185q.143-.075.308-.081.271-.009.424.1t.219.309q.066.2.074.44L8.7,4.615q0,.088-.05.148a.188.188,0,0,1-.029.026.176.176,0,0,1-.033.019.188.188,0,0,1-.037.012.227.227,0,0,1-.041.005.212.212,0,0,1-.04,0,.185.185,0,0,1-.037-.01A.182.182,0,0,1,8.4,4.8a.2.2,0,0,1-.031-.024q-.059-.056-.062-.144L8.273,3.573q0-.14-.046-.255t-.136-.181Q8,3.07,7.835,3.076t-.271.08q-.117.074-.18.193t-.058.258l.037,1.056q0,.088-.05.148a.188.188,0,0,1-.029.026.176.176,0,0,1-.033.019.188.188,0,0,1-.037.012.237.237,0,0,1-.083,0,.188.188,0,0,1-.038-.01.176.176,0,0,1-.034-.017.188.188,0,0,1-.03-.024q-.057-.056-.06-.144l-.037-1.06q0-.14-.046-.255t-.134-.18Q6.66,3.117,6.5,3.123T6.23,3.2q-.116.072-.176.19T6,3.649l.037,1.06q0,.088-.052.148a.2.2,0,0,1-.029.026.183.183,0,0,1-.033.019.185.185,0,0,1-.036.012.212.212,0,0,1-.04.005.227.227,0,0,1-.041,0,.188.188,0,0,1-.038-.01.176.176,0,0,1-.034-.017.188.188,0,0,1-.03-.024q-.057-.056-.06-.144l-.059-1.7q0-.088.05-.148t.14-.063q.083,0,.142.053t.062.144l.008.236L5.911,3.3q.024-.089.084-.183t.153-.174q.094-.079.21-.132T6.612,2.75ZM9.621,4.582q0,.088-.05.148a.188.188,0,0,1-.029.026.176.176,0,0,1-.033.019.188.188,0,0,1-.037.012.227.227,0,0,1-.041.005.211.211,0,0,1-.04,0,.184.184,0,0,1-.037-.01.182.182,0,0,1-.034-.017A.2.2,0,0,1,9.29,4.74q-.059-.056-.062-.144L9.169,2.885q0-.088.052-.148t.137-.063q.086,0,.143.053t.06.144ZM9.345,2.411q-.114,0-.166-.036t-.056-.14l0-.064q0-.1.05-.142t.163-.046q.118,0,.17.036t.056.136l0,.064q0,.1-.048.146T9.345,2.411Zm1.8.169q.278-.01.435.1t.225.308q.068.2.076.439L11.919,4.5q0,.088-.052.148a.2.2,0,0,1-.029.026.182.182,0,0,1-.033.019.184.184,0,0,1-.036.012.211.211,0,0,1-.039.005.226.226,0,0,1-.041,0,.187.187,0,0,1-.038-.01.175.175,0,0,1-.034-.017.188.188,0,0,1-.03-.024q-.057-.056-.06-.144L11.49,3.448q0-.144-.048-.256T11.3,3.013q-.1-.067-.271-.061t-.28.08q-.119.074-.184.191t-.06.26l.037,1.067q0,.088-.052.148a.2.2,0,0,1-.029.026.182.182,0,0,1-.033.019.185.185,0,0,1-.036.012.211.211,0,0,1-.039.005.227.227,0,0,1-.041,0,.188.188,0,0,1-.038-.01.175.175,0,0,1-.034-.017.188.188,0,0,1-.03-.024q-.057-.056-.06-.144l-.059-1.695q0-.088.05-.148t.139-.063q.082,0,.141.053t.062.144l.008.224-.069.042q.024-.089.09-.181t.161-.174q.1-.081.215-.132T11.146,2.58Z" transform="translate(1.434 0.123)" fill="#fff"/>
    </g>
  </g>
</svg>
